<?xml version="1.0" encoding="UTF-8"?>
<svg width="552.7559" height="552.7559" xmlns="http://www.w3.org/2000/svg" viewBox="0 0 552.7559 552.7559">
  <g id="c" data-name="图层 1">
    <g>
      <path d="m276.3785,11.0549c146.1371,0,265.3225,119.1854,265.3225,265.3225s-119.1854,265.3225-265.3225,265.3225S11.0556,422.5146,11.0556,276.3775,130.2413,11.0549,276.3785,11.0549h0Zm0-11.0549C124.1521,0,0,124.1521,0,276.3775s124.1521,276.3785,276.3785,276.3785,276.3775-124.1525,276.3775-276.3785S428.6034,0,276.3785,0h0Zm0,5.5268C127.1972,5.5268,5.5278,127.1972,5.5278,276.3775s121.6694,270.8503,270.8507,270.8503,270.8503-121.6691,270.8503-270.8503S425.5593,5.5268,276.3785,5.5268h0Zm0,8.2924C131.7632,13.8191,13.8191,131.7632,13.8191,276.3775s117.9441,262.5593,262.5593,262.5593,262.559-117.9444,262.559-262.5593S420.9933,13.8191,276.3785,13.8191Z" style="fill: #006f7d; fill-rule: evenodd; stroke-width: 0px;"/>
      <path d="m276.3785,94.3567c100.2553,0,182.0208,81.7655,182.0208,182.0208s-81.7655,182.0218-182.0208,182.0218-182.0218-81.7665-182.0218-182.0218,81.7665-182.0208,182.0218-182.0208h0Zm23.4696,111.8029l-4.5794,1.9501c-1.9253.8208-3.084,2.1498-3.4817,4.1445-.3386,1.6991-.0302,3.7975.9192,6.4268.9722,2.6941,2.1165,4.373,3.4985,5.2825,1.5222,1.0027,3.1582,1.0329,5.0133.3936l12.2979-4.2502c1.6497-.5688,4.0468-1.3356,6.6601-1.9528,2.574-.6081,5.366-1.0732,7.8564-1.0608h.0067c.0067,0,.0352.001.0617.001.0275,0,.0554.001.0829.001h.0399c.0275,0,.056-.001.0826-.001.0279,0,.0554-.001.0631-.001h.0064c2.4897-.0124,5.2815.4527,7.8568,1.0608,2.6129.6171,5.0093,1.384,6.6597,1.9528l12.2979,4.2502c1.8551.6393,3.4911.6091,5.0133-.3936,1.3823-.9094,2.5266-2.5884,3.4988-5.2825.9484-2.6293,1.2574-4.7278.9178-6.4268-.3967-1.9947-1.5561-3.3237-3.4807-4.1445l-4.5794-1.9501c-3.5975-1.5336-9.2169-3.3039-14.936-4.5502-4.721-1.0272-9.5441-1.7091-13.4205-1.6256-3.8754-.0836-8.6984.5984-13.4195,1.6256-5.7191,1.2464-11.3381,3.0166-14.936,4.5502h0Zm0-26.706l-4.5794,1.9511c-1.9253.8198-3.084,2.1488-3.4817,4.1445-.3386,1.6981-.0302,3.7975.9192,6.4268.9722,2.6941,2.1165,4.372,3.4985,5.2825,1.5222,1.0027,3.1582,1.0319,5.0133.3936l12.2979-4.2502c1.6497-.5688,4.0468-1.3356,6.6601-1.9528,2.5703-.6071,5.3566-1.0732,7.843-1.0608.0685,0,.1373.002.2047.002,2.6998-.0181,5.3899.4403,8.0088,1.0588,2.6129.6171,5.0093,1.384,6.6597,1.9528l12.2979,4.2502c1.8551.6383,3.4911.6091,5.0133-.3936,1.3823-.9104,2.5266-2.5884,3.4988-5.2825.9484-2.6293,1.2574-4.7288.9178-6.4268-.3967-1.9947-1.5561-3.3247-3.4807-4.1445l-4.5794-1.9511c-3.5975-1.5326-9.2169-3.3039-14.936-4.5492-4.721-1.0282-9.5441-1.7091-13.4205-1.6256-3.8754-.0836-8.6984.5973-13.4195,1.6256-5.7191,1.2454-11.3381,3.0166-14.936,4.5492h0Zm-23.7267,105.47c.1732.004.3396.004.5118,0,.1218-.0027.1943-.0047.253-.0064.0601.0017.1332.0037.254.0064.099.002.2104.005.3473.005,2.5169,0,5.4738-.5195,6.8671-1.5648,1.5565-1.1682,2.3347-2.8558,2.3347-5.0694v-5.4375h70.9505c2.2202,0,3.919-.8229,5.0882-2.4656,1.0272-1.4424,1.543-3.475,1.543-6.0969,0-2.5283-.5252-4.4898-1.5705-5.8865-1.1702-1.5638-2.8595-2.3427-5.0607-2.3427h-70.9505v-7.946h70.2263c2.2585,0,3.966-.8628,5.1284-2.5884,1.0054-1.4934,1.5058-3.6045,1.5058-6.3325,0-2.7817-.4936-4.9304-1.4907-6.4486-1.1625-1.7706-2.8736-2.6562-5.1435-2.6562h-70.2263v-51.9613c0-2.3085-.7611-4.074-2.2833-5.3033-1.4001-1.1289-4.3737-1.6893-6.9185-1.6893-.1369,0-.2483.002-.3473.0037-.1208.003-.193.0057-.252.0087h-.0027c-.0591-.002-.1316-.0057-.2524-.0087-.0748-.0017-.1587-.0027-.2537-.0037-.0067.0037-.004-.0037-.003,0-.096.001-.1789.002-.255.0037-.1208.003-.193.0067-.252.0087h-.0017c-.0601-.003-.1322-.0057-.2524-.0087-.0987-.0017-.2111-.0037-.348-.0037-2.5448,0-5.5184.5604-6.9178,1.6893-1.5229,1.2293-2.284,2.9948-2.284,5.3033v51.9613h-70.2256c-2.2696,0-3.9817.8856-5.1442,2.6562-.996,1.5182-1.4897,3.667-1.4897,6.4486,0,2.728.4994,4.8392,1.5058,6.3325,1.1625,1.7256,2.8689,2.5884,5.1281,2.5884h70.2256v7.946h-70.9495c-2.2011,0-3.8908.7789-5.0607,2.3427-1.0454,1.3967-1.5716,3.3582-1.5716,5.8865,0,2.6219.5165,4.6546,1.543,6.0969,1.1699,1.6427,2.8679,2.4656,5.0892,2.4656h70.9495v5.4375c0,2.2135.7792,3.9012,2.3354,5.0694,1.3927,1.0454,4.3502,1.5648,6.8664,1.5648.1369,0,.2493-.003.348-.005.1208-.0027.1933-.0047.253-.0064.0601.0017.1322.0037.253.0064h0Zm-23.2129-78.764c-3.5975-1.5336-9.2166-3.3039-14.935-4.5502-4.721-1.0272-9.5448-1.7091-13.4205-1.6256-3.8764-.0836-8.6984.5984-13.4195,1.6256-5.7201,1.2464-11.3392,3.0166-14.937,4.5502l-4.5794,1.9501c-1.9243.8208-3.084,2.1498-3.4807,4.1445-.3386,1.6991-.0302,3.7975.9182,6.4268.9722,2.6941,2.1165,4.373,3.4988,5.2825,1.5219,1.0027,3.1582,1.0329,5.014.3936l12.2973-4.2502c1.6504-.5688,4.0465-1.3356,6.6597-1.9528,2.575-.6081,5.367-1.0732,7.8564-1.0608h.0077c.0067,0,.0352.001.0617.001.0268,0,.0554.001.0829.001h.0399c.0275,0,.056-.001.0826-.001.0268,0,.0554-.001.0621-.001h.0067c2.4904-.0124,5.2821.4527,7.8564,1.0608,2.6132.6171,5.0103,1.384,6.6607,1.9528l12.2973,4.2502c1.8548.6393,3.4911.6091,5.014-.3936,1.3823-.9094,2.5266-2.5884,3.4978-5.2825.9494-2.6293,1.2574-4.7278.9188-6.4268-.3977-1.9947-1.5561-3.3237-3.4817-4.1445l-4.5794-1.9501h0Zm0-26.706c-3.5975-1.5326-9.2166-3.3039-14.935-4.5492-4.721-1.0282-9.5448-1.7091-13.4205-1.6256-3.8764-.0836-8.6984.5973-13.4195,1.6256-5.7201,1.2454-11.3392,3.0166-14.937,4.5492l-4.5794,1.9511c-1.9243.8198-3.084,2.1498-3.4807,4.1445-.3386,1.6981-.0302,3.7975.9182,6.4268.9722,2.6941,2.1176,4.372,3.4988,5.2825,1.5219,1.0027,3.1582,1.0319,5.014.3936l12.2973-4.2502c1.6504-.5688,4.0465-1.3356,6.6597-1.9528,2.6189-.6185,5.309-1.0769,8.0088-1.0588h.0399c.055,0,.1104-.002.1644-.002,2.4867-.0124,5.2738.4537,7.8433,1.0608,2.6132.6171,5.0103,1.384,6.6607,1.9528l12.2973,4.2502c1.8548.6383,3.4911.6091,5.014-.3936,1.3813-.9104,2.5266-2.5884,3.4978-5.2825.9494-2.6293,1.2574-4.7288.9188-6.4268-.3977-1.9957-1.5561-3.3247-3.4817-4.1445l-4.5794-1.9511h0Zm68.8739-40.6973c-4.2197,0-6.358,1.6306-6.358,4.9408v6.8245h-7.595c-3.7653,0-6.5554.0695-8.4665-.8323-1.8511-.8725-2.8327-2.7236-2.8327-4.472v-1.5202c0-3.3122-2.1088-4.9408-6.3584-4.9408-4.217,0-6.3553,1.6306-6.3553,4.9408v3.63c0,5.1778-.1648,10.717,4.8086,13.0533,5.0247,2.3592,15.6226,1.7722,26.4671,1.7722h.3322v3.5529c0,3.1649,2.1384,4.7633,6.358,4.7633s6.3584-1.5984,6.3584-4.7633v-3.5529h.3319c10.8445,0,21.4427.5869,26.4674-1.7722,4.9731-2.3364,4.8086-7.8756,4.8086-13.0533v-3.63c0-3.3102-2.1394-4.9408-6.3564-4.9408-4.2495,0-6.3584,1.6286-6.3584,4.9408v1.5202c0,1.7484-.9806,3.5995-2.832,4.472-1.9118.9017-4.7019.8323-8.4672.8323h-7.594v-6.8245c0-3.3102-2.1394-4.9408-6.3584-4.9408h0Zm-89.6048,0c-4.219,0-6.3584,1.6306-6.3584,4.9408v6.8245h-7.594c-3.765,0-6.555.0695-8.4672-.8323-1.8511-.8725-2.832-2.7236-2.832-4.472v-1.5202c0-3.3122-2.1088-4.9408-6.358-4.9408-4.217,0-6.3557,1.6306-6.3557,4.9408v3.63c0,5.1778-.1654,10.717,4.808,13.0533,5.0244,2.3592,15.6236,1.7722,26.4671,1.7722h.3319v3.5529c0,3.1649,2.1394,4.7633,6.3584,4.7633s6.3584-1.5984,6.3584-4.7633v-3.5529h.3319c10.8445,0,21.4437.5869,26.4671-1.7722,4.9734-2.3364,4.809-7.8756,4.809-13.0533v-3.63c0-3.3102-2.1387-4.9408-6.3557-4.9408-4.2502,0-6.3584,1.6286-6.3584,4.9408v1.5202c0,1.7484-.9816,3.5995-2.8327,4.472-1.9112.9017-4.7012.8323-8.4662.8323h-7.595v-6.8245c0-3.3102-2.1387-4.9408-6.3584-4.9408h0Zm43.3266,227.8636c.1322,0,.2547,0,.3691-.002.1151.002.2366.002.3688.002.2514,0,.4661-.003.6554-.0097l61.3171,42.8853-.0332-.0326,8.8934,6.4698.0332.0322c2.0766,1.4481,4.1828,1.8199,6.3231,1.1168,1.8558-.6088,3.5606-2.0377,5.1197-4.2797v.0114c1.5726-2.2421,2.3307-4.3341,2.2689-6.2812-.0705-2.2612-1.1417-4.1143-3.2193-5.5697l.044.0322-8.8887-6.4715-.044-.0322-59.0643-41.3014-3.0048-2.183-.3044-21.7061h38.6244c.0987,0,.1997.0027.3024.0047,1.1081-.2893,2.2699.2168,3.4666.2168,7.5692,0,13.743,6.1738,13.743,13.744,0,.0866-.002.1742-.003.2597.002.0419.003.0819.003.1188v17.9526c0,2.5179.8913,4.4489,2.6595,5.8036,1.5393,1.1796,3.6522,1.7635,6.3262,1.7635,2.6881,0,4.8076-.5839,6.3517-1.7635,1.7729-1.3538,2.6636-3.2847,2.6636-5.8036v-18.5966h0c0-.1436-.003-.2893-.0057-.4376-.2369-17.1579-14.2987-31.0787-31.511-31.0787-2.0071,0-5.9513-.098-6.0198-.0107-12.215-.0779-24.4304-.0752-36.6438-.0856v-6.945c0-2.5105-.9047-4.4482-2.7186-5.8097-1.5642-1.1709-4.9724-1.7608-7.7034-1.7608s-6.1396.59-7.7034,1.7608c-1.8142,1.3615-2.7179,3.2992-2.7179,5.8097v6.945c-12.2144.0104-24.4294.0077-36.6448.0856-.0685-.0873-4.0116.0107-6.0198.0107-17.2123,0-31.274,13.9208-31.51,31.0787-.0037.1483-.0064.294-.0064.4376h0v18.5966c0,2.5189.8903,4.4499,2.6636,5.8036,1.5437,1.1796,3.6633,1.7635,6.3513,1.7635,2.675,0,4.7868-.5839,6.3262-1.7635,1.7682-1.3548,2.6599-3.2857,2.6599-5.8036v-17.9526c0-.0369.0017-.0768.0037-.1188-.002-.0856-.0037-.1732-.0037-.2597,0-7.5702,6.1735-13.744,13.7436-13.744,1.196,0,2.3585-.5061,3.4656-.2168.1027-.002.2037-.0047.3034-.0047h38.6244l-.3044,21.7061-3.0059,2.183-59.0633,41.3014-.044.0322-8.8897,6.4715.044-.0322c-2.0776,1.4554-3.1478,3.3086-3.2193,5.5697-.0617,1.9471.6963,4.0391,2.2689,6.2812v-.0114c1.5591,2.2421,3.2639,3.671,5.1197,4.2797,2.1414.7031,4.2465.3312,6.3231-1.1168l.0332-.0322,8.8934-6.4698-.0332.0326,61.3171-42.8853c.1893.0067.404.0097.6554.0097Z" style="fill: #006f7d; fill-rule: evenodd; stroke-width: 0px;"/>
      <path d="m388.3266,99.8939c-.0379-.4983-.449-.4128-.599-.5497-.0336.0094-.045.0312-.0688.0742-.1654-.3141-.1893-.2712-.3567-.2218-.1483-.192-.0416-.3869-.1426-.3574.0477-.0866-.0513-.1124-.0826-.1581.0352-.0648-.1799-.547-.2218-.6249-.5631-.3064-.9188-2.4924-.801-2.7092-.1084-.0591-.0208-1.6669-.1292-1.7259.0208-.6057.0493-1.1242-.1638-1.3517-.0074-.0883-.0057-.1436-.0037-.1987-.0419-.0789-.0836-.1581-.1151-.2027-.0399-.4423.0466-.7047-.1701-.8219.0114-.0218.0235-.0436.0235-.0436-.0873-.0477-.0322-.354-.1842-.4366-.1285-.4349-.3111-1.236-.2161-1.4088-.0524-.1124-.0819-.2124-.1114-.3131-.053-.057-.0846-.1017-.1282-.1255.0302-.5728.195-1.1853.0295-1.5004.0114-.0208.0238-.0426.0238-.0426-.1295-.4346.2614-1.8779.4269-1.8722.5547-.4004.4081.0248.7326.2007.0084.0886.0161.1772.0124.2876.0752.0691.1597.1711.2443.2728.0067.1446.0124.2883.0181.4309q.0124-.0208.0342-.0094c.0218.0114.043.0238.0752.0695-.0124.0208-.0141.0762-.0161.1312.0218.0114.0436.0238.0648.0352-.0114.0218.3433,1.2803.2728,1.4108.0409.0789-.0379.1198.1141.2024.0393.1342-.1101.3054.1799.547-.0114.0218-.0238.044-.0255.098.1732.0953.3453.5527.2759.9923.1084.0591.2366.8017.5745,1.2662-.0114.0218-.0134.0768-.0154.1322.1732.094.0866.3557.3037.4735,0,0-.0466.0866.0181.1218-.0591.1084.3584.4759.4651.59-.1409.2597.4205.6212.3262.7943.0732.1245.1675.2594.25.4165.0221.0124.044.0238.0658.0362,0,0-.0114.0218-.0238.0426.2389.1295.7715,1.0084,1.1084,1.4729-.0114.0218-.0228.0426-.0352.0644.1094.0591.4735.6782.7494.688.0419.3879.3779.2329.4977.6343.0114-.0218.0332-.0094.054.002.1668.3148.5423.6041.8229,1.1205.0221.0124.044.0238.0658.0362-.1302.2379.6792.4527.6641.8943.1302.0701.3289.3745.6057.6933-.0124.0218-.0238.043-.0255.098.2832.098.5554.2178.8266.3376-.0114.0211-.0228.043-.0134.0762,0,0,.0221.0124.044.0238-.0238.0436-.0591.1084-.0943.1732-.4336-.2349-.4936.2369-.8104.4584-.043-.0238-.0648-.0352-.0866-.0477-.0332.0107-.0664.0201-.0903.0638-.0218-.0124-.044-.0238-.0648-.0352-.2111.0258-.5212.3903-.9115.1782-.0332.0104-.0664.0198-.1121.052-.0742-.0691-.1618-.1158-.2483-.1634-.0664.0198-.1342.0399-.1903.0933.0114-.0221.0228-.044.0352-.0648-.0866-.0477-.2903-.2426-.2406-.0752-.0648-.0352-.1302-.0705-.1846-.0722-.0315-.045-.0534-.0574-.0752-.0688-.0114.0221-.0238.043-.0477.0866-.0094-.0332.002-.055.0144-.0768-.0218-.0114-.044-.0238-.0658-.0352-.0332.0094-.0446.0312-.0685.0752-.3463-.1883-1.5333-.3282-1.7008-.2789.0114-.0218.0238-.0436.0352-.0644-.4111-.2238-1.0635-.8316-1.3699-.2675-.0218-.0124-.044-.0238-.044-.0238h0Zm-288.5391,29.4525c-.0695.0047-.2903-1.8464-.1456-2.0139-.056-.0477-.0829-1.6333-.0503-1.6716-.0829-1.1454-.1493-2.3095-.2161-3.474-.0131-.1732-.155-.6869-.0416-.8172-.2047-.1769-.0258-.3473-.1-.4118.1769-.2047-.6953-2.6189-.4215-2.9357-.1863-.1607-.2044-1.3813-.1883-1.3994-.2416-.2091-.0524-1.445-.2748-1.638.0275-.3329-.3671-3.1488-.2873-3.2421-.1144-.1312-.2359-.3671-.0906-.5346-.3366-.5507-.2701-1.5675-.5259-2.2125.0161-.0181.0322-.0373.0483-.056-.1198-.2007-.2577-.9057-.1779-.999-.1426-.2863-.2376-.4014-.2074-.7-.0181-.0161-.0369-.0322-.0369-.0322-.0171-.2436-.1228-.4977-.2265-.7165.0161-.0188.0322-.0369.0487-.056-.045-.1359-.2359-.8551-.1876-.9115-.1863-.1607-.7685-1.9337-1.1386-1.5058-.5869-.1493-2.6149-1.4165-2.1803-1.9186-.2785-.2416-.0456-.3977.1426-.6906-.093-.0809.2342-.3836.1591-.4473.2054-.5383.1225-.4802.6638-.9558,0,0,.0258-.3681.1752-.2399-.0228-.3118.6725-.5886,1.0427-1.0168.1873-.0664.391-.1503.6124-.2188.0903.0456.5688-.0943.9313.0896.0161-.0181.0678-.0393.1181-.0611.0188.0161.0369.0326.0742.0648.2779-.0201.3272-.3027.9665.0876,0,0,.0399.0664.1198-.0268.451-.0322,3.3978,1.8665,2.8176,2.536.101.1846.2017.3691.3208.5698-.1124.1305-.2094.2426-.2873.3702.093.0809-.0238.6299.0228.801-.2255.2608.0292.643-.1648.8665.0933.0809-.0399.1597.0715.2571,0,0,.2312,2.479.3433,2.575-.0846.2852-.099,1.0541.1436,1.2631-.1779.2047.0362,1.9521.1151,2.0853-.0503.0208-.0829.0591-.1151.096.1675.1446.2084.4738-.0047.4195-.0315.0362.2064.4386.0876.7259-.0134.0534-.0279.1067-.0248.142.0191.0161.0373.0322.056.0483-.0302.2987-.0617.5973-.0581.8933.003.0352.0057.0705.043.1017.0181.0161.055.0487.0933.0809-.097.1114.0322.451-.0087.6108.1305.1131-.1104.1654.0389.295-.1618.1852-.3403,1.3326-.3299,1.4715-.0782.1275-.156.255-.2342.3832.0191.0161.0373.0315.0554.0487-.2732.3158-.2856.6306-.4071.8836.1493.1295-.2,2.3001-.3292,2.4495.0151.2084-.0886.2161-.004.4188-.0805.093-.1426.2024-.0493.2826.0419.5906-.3225,2.0652-.1322,2.5226-.0161.0181-.0322.0373-.0483.056-.0466.8057-.0772,1.5934-.1077,2.3803.1446.5487-.4376,2.3874-.1218,2.6615-.0255.3681-.0513.7363-.0416,1.1014-.2581.2987-.2503.8913-.3453,1.2645h0Zm-4.1609-5.4234c.2044-.3111.8333-1.2631,1.246-1.5893-.2044-.1779-.0768-.1.0201-.2114-.0373-.0322-.056-.0483-.0581-.0826.0638-.0752.0933.0799.1141.1312.0503-.0218.1198-.0265.2054-.0503-.0074-.1037-.0768-.099.0839-.2846-.0554-.0483-.0211-.0513.0436-.1255-.2349-.1057-.1789-.057-.0654-.1876.0178.0164.0369.0326.0903.046.0161-.0181.0483-.0564.0799-.0933-.0208-.0503-.0419-.101-.0436-.1362.0312-.0369.0638-.0742.096-.1121-.056-.0477-.0933-.0799-.0446-.1359.2738-.3161.1168-1.038-.0144-1.4118.0799-.0933-.0883-.0114.0248-.1416-.2235-.1933-.4292-.3702-.6336-.547-.0829-1.1464-1.5877-1.2121-2.128-1.6789-.4061.1691-.3816.0275-.5269.195-.2608-.2255-1.1121-.1819-1.2605-.3101-1.0323-.2742-.8239-1.0047-1.1027-1.2464l-.0161.0181c-.0369-.0322-.0742-.0638-.1114-.096-.1769.2044-.0866.25-.1141.3567-.0131.053-.0084.1225-.0027.192,0,0,.0181.0161.0359.0326-.0607.1094-.1235.2188-.15.3252.0923.0809.0114.4004-.005.4185.0678.938-1.4934.8239-1.441,1.5524-.1933.2238-.3863.4463-.5614.6859.2057.1772-.5145.5957-.5145.5957-.0322.0369-.0648.0752-.0809.0933.1178.4279-.1883.293-.1685.5705-.3054.354-.5829.8621-.5601,1.1749.055.0487.1302.1124.2044.1769-.451.5215,3.5596,3.1461,3.9146,2.736.1292.1121.349.0094.6876.1074.1342-.0799,1.0531-.1634,1.2464-.3873.1302.1134.3967-.3071.5819-.1463.0513-.0208.1181-.0611.1846-.1.2359-.1225.49-.2282.744-.3339h0Zm42.1783,28.3269c.0809-.093-.1074-.0275.0218-.1769-.0349.003-.053-.0134-.0711-.0285-.003-.0342.0104-.0886.0238-.1416-.0715-.0305-.1248-.044-.1628-.0762.0322-.0373.0648-.0742.1322-.1141-.1302-.1124-.2608-.2245-.3728-.3215-.0503.0208-.0668.0399-.0829.0581-.0369-.0326-.056-.0487-.0581-.0829.354-.4101.4604-.3826-.0416-.8172,0,0,.0161-.0191.0322-.0379-.1389.0104-.098-.1493-.1007-.1836,0,0,.0161-.0191.0322-.0373-.0373-.0332-.0238-.0856.0695-.0057.0161-.0181.0322-.0373.0477-.055-.353-.3064-.7249-.8554-.7413-1.098,0,0,.0154-.0188.0315-.0369-.1114-.097-.154-.688-.0732-.7809-.0933-.0799-.0564-.0477.0245-.1409-.4651-.4024-.9313-.8047-1.3772-1.192-.0477-.6591-1.4403-1.5705-1.682-1.7806.3225-.3722-3.0877-3.127-3.2867-3.2344-.193-.0275-.3916-.1436-.5886-.3091l-.493-.6963-.4782-.5205-.3722-.5708c-.0876.1695-.3376-.3517-.4329-.2701l-.2024-.1121-.1161-.3453-.349-.2826-.3779-.4557-.4101-.4755-.6161-.7571-.3655-.2997-.0675-.0124c-.0903-.1255-.1228-.2312-.1322-.3597-.2064-.056-.6708-.4336-1.0739-.6933-.1886-.1218-.3463-.2597-.4225-.4071-.0772-.1467-.154-.1144-.0161-.2732-.1305-.1121.5507-1.3138.8084-1.6105.0409-.1607.0809-.3205.1571-.4832.0695-.0057.489-.7155.6289-.9531-.2416-.2094.2292-.453.2091-.7306.044-.1248.0866-.2503.1305-.3759-.0191-.0151-.0221-.0503-.0238-.0846.1607-.1866.293-.5279.2654-.9094-.0191-.0161.4822-2.0243.6913-2.2659.2047-.8.6688-1.3746,1.1339-2.1756.1389-.4983.3836-.254.8021-.7393-.1876-.4222.45-1.0091.7601-1.5541-.0419-.102-.0849-.2037-.1265-.3054.193-.2238-.0124-.1742.1805-.3967.0534.0131.1067.0265.1943.0369-.0077-.1037.0597-.1426-.0524-.2396.0171-.0191.0322-.0373.0836-.0581.0134-.0544.0456-.0913.0782-.1285-.4473-.3863-.7393-.801-1.0178-1.0427-.0802.0923-.3104.057-.3749.1316-.0715-.0295-.1248-.043-.1628-.0752-.2644.194-.2111.2064-.2732.3158.0933.0809-.0856.0238.0638.152-.0483.0564-.0809.0933-.094.1477,0,0,.0188.0161.0369.0322-.1047.0067-.1131.1295-.1131.1295-1.0064.0732-.9302.3993-1.3491.8826-.054-.0134-.0883-.0114-.1074-.0275-.0648.0752-.1121.1312-.1416.2027-.1077-.0268-.195-.0383-.2675-.0678-.3205.1456-.799.7735-.6876.8695-.1332.0792-.2141.1722-.1389.2369-.0326.0373-.0497.056-.0648.0752.0554.0477-.1748.7279-.1748.7279.153.4242.0873.7265.1101,1.0386-.1292.1483-.1836.3624-.2101.4688-.1057.2342-.2111.4692-.2997.6843.0208.0513.043.1017.098.151-.0675.0393-.1151.0953-.1638.1503-.0322.0373-.0302.0732-.0265.1067.0373.0322-1.3031,3.9505-1.4477,4.118.0017.0352.0208.0503.0587.0826-.1272.1839-.7192,1.1692-.6628,1.2168-.1779.2054-.2379.5765-.3111.7735-.6641.4661-1.2293-.8363-1.2568-1.2178.0161-.0191.0326-.0379.0487-.056-.1094-.7772-.0144-1.1511.2064-1.9692-.0933-.0799.3634-1.736.7799-1.7665.4252-.641.8497-1.2823,1.3091-1.9263-.0285-.155-.1477-.5833.0302-.7876-.1665-.3718-.1094-.5497-.0007-.9769-.1181-1.6316-1.7323-2.2478-2.6438-3.2639-.155.0285-.291.0732-.4118.099-.1856-.1597-.3215-.1151-.453-.2292-.0664.0399-.0987.0768-.1302.1151-.0534-.0134-.0722-.0305-.0913-.0456-.0799.0923-.296.0037-.393.1151-.3091-.1695-.4745-.0524-.642-.198-.1836.3624-.5175.3349-.6165.4111.003.0352.0047.0695.0077.1037.1121.097-.5299.3869-.5947.4621-.0369-.0322-.055-.0483-.0742-.0644-.4225.1883-.3853.2195-.646-.0057-.0513.0218-.0866.0235-.1017.0426-.2178-.351-.3024-.5544-.1769-.9997-.2799-.2406-1.1702-1.6951-.9598-1.9367-.2057-.1772-.1258-.2701-.1695-.4074,0,0,.0161-.0181.0322-.0369-.2604-.2255-.2074-.7-.3014-.7809.097-.1114-.2178-.1238-.0399-.3282-.1493-.1285-.1534-.4252-.196-.5272.0483-.056-.1369-.4443-.1836-.6145.0295-.0722.094-.1467.1587-.2208-.2608-.2262-.295-.4497-.349-.7249.0151-.0188.0312-.0379.0826-.0587-.2416-.2094-.2977-.746-.391-.8269.0477-.056-.3289-.447-.3527-.5326-.0507.0208-.102.0419-.1181.0607-.2319-.0701-.448-.1607-.6631-.249-.0322.0369-.0644.0752-.097.1121-.5869-.1503-.4433.1362-.6363.3597-.0191-.0164-.0373-.0326-.056-.0477-.0513.0208-.0856.0228-.1198.0255-.0839.0581-.1487.1322-.2124.2074-.0188-.0161-.0369-.0322-.0369-.0322-.0675.0399-.1161.0953-.1638.1513-.2141-.0544-.1826.1349-.2148.1722-.0524-.0134-.0876-.0104-.1067-.0268-.1235.2181-.6839.6776-.5537.7896-.0826.0591-.1473.1332-.195.1893-.1396.0097-.1483.1332-.2225.0685-.1285.1487-.055.4396-.1675.5708-.0933-.0809-.0752.4235.1483.6175-.2074.0141-.1225.2188-.156.255.0963.1151.2104.2463.3406.3594-.1131.1302-.0607.3712.1446.548-.7353,1.4135,1.2185,2.8793,1.3222,4.3016-.197-.0742-.3755-.1302-.5383-.2064-.0161.0191-.0326.0379-.0326.0379-.7598-.1369-1.1024-.0426-1.5189-.0124-.1124.1305-.4302.0839-.4302.0839-.9453.6782-1.3564,1.2662-.9158,2.3001-.2074.0144.2205.8722.2282.9769-.1446.1675.4299.6326.7685.7296.2245-.2604-.4222-.5279-.0359-.9739.6202.3738,1.5924,1.2803,2.3723,1.9216.391.1121,4.122,3.925,4.0411,4.019.0752.0638.0027.0342.0124.1732.093.0799.2272.49.2423.6974.0191.0161-.0218.1758.1456.3215-.096.1114-.1017.0419.0094.1389-.093.1463-.052.4745.1342.6363-.0322.0362-.0483.0554-.0648.0742-.2977-.2587-.0379.195-.0866.2503.143.2863.2856.5725.4473.8752-.0342.0017-.0513.0208-.0668.0399,0,0,.1665.8608.1047.9692-.056-.0483-.2614.001-.2779.0201-.2282-.2628-1.5591-2.2602-1.5105-2.3166-.7114-.9084-1.1044-1.9967-1.5934-2.9736.0161-.0181.0312-.0359.0477-.056-.1487-.1285-.9675-2.0404-1.4497-1.482-.3806-.2-.8591-.0601-1.0457-.2218-.0664.0399-.1503.099-.2433.0181-.254.1047-.3245.3376-.4738.2084-.0648.0742-.1285.1483-.1742.2396-.0722-.0305-.1446-.0597-.2158-.0893-.1342.0799-.2685.1597-.4014.2386.0245.3473-.6611.2742-.2883.5967-.0648.0742-.1295.1493-.1772.2044-.0161.0191-.0141.0534-.0114.0886-.253-.1208-.3594-.1493-.3728-.3225.0161-.0181.0326-.0373.0487-.0564-.0581-.0815-.0819-.1681-.1057-.2537.1665-.6051-.4262-1.3128-.5383-1.8981,0,0,.0161-.0178.0322-.0369-.1111-.096-.0285-.155-.1218-.2349.0839-.2856-.0638-.6423-.0815-.8846-.1295-.1124-.0866-.2379-.1332-.4091.0322-.0373.0644-.0742.096-.1124-.0373-.0312-.0742-.0638-.1114-.096-.0446-.1362-.055-.2748-.0644-.4138.0161-.0191.0312-.0373.0473-.056-.0228-.0859-.1453-.3208-.0161-.4702-.1302-.1121.0326-.7524-.0218-.801.0124-.052.0446-.0903.0933-.1453-.1114-.097.0446-1.0685.1893-1.2356-.1665-.1446-.0124-.6621.1161-.8114-.0362-.0315-.0393-.0668-.0419-.102.0893-.2148.1379-.9863.1161-1.2984.0161-.0191.0312-.0379.0473-.056-.0369-.0326-.0389-.0678.0164-.0181.0322-.0379.0644-.0752.097-.1124-.0373-.0322-.056-.0483-.0591-.0836.1295-.1483.1265-.1826.0151-.2795.0487-.0564-.0638-.1524-.0675-.2218.0638-.0752-.0369-.7477-.0477-.8866.0487-.056.1151-.096.1829-.1349-.2987-.2581.054-1.4175-.3178-1.74-.1151-.6192-.3034-1.3041-.6202-1.5783-.0829-1.145-1.6296-2.028-2.4488-2.0212-.2195.1037-.449.0675-.5242.0027-.1017.0419-.1873.0658-.2537.1057-.0181-.0161-.0373-.0322-.0554-.0487-.3262.0762-.6524.1524-.9598.2436-.2903.3359-.5262.4577-.6383.5879-.3319.2329-.4749,1.639-.2883,1.8008-.1389.4983-.0715,1.4353-.0362,1.9216-.1769.2044-.0295.5601-.0121.8027-.1124.1305-.0077.6118.1406.741-.0399.1601-.1332.0792.0151.2074-.096.1124-.1977,1.1313-.1826,1.3397-.0477.056-.094.1463-.1685.0826-.1282.1483-.1577.7088-.0084.8383-.0436.1245-.1295.1483.0198.2765-.097.1134-.0406.1607-.0342.2654-.0151.0181-.0131.0534-.0104.0876.0057.0695.0104.1389.0315.1893.0027.0352.0228.0856.0446.1369.0373.0315-.1816.6232-.0886.7041-.2587,1.0141-.0581,2.0984-.1272,3.0804.0104.1386.0198.2775.0483.4326.0104.1389.0208.2779.0466.3977-.1285.1493.0607.1181-.0352.2302,0,0,.0181.0154.0373.0315-.0648.0752.053.502.0607.6067-.097.1114-.0151.5071-.0379.6833.1503.1282-.5926,2.4152-.6735,2.5085-.1067-.0268-.6413-.9135-.6088-.4624.0493.2064.1178.4279.2024.6316-.0322.0373-.0483.055-.0644.0742.1208.4634.0171.9588-.0181,1.4497.0752.0648-.0799,1.0702.4423,1.5212,0,0,1.8427,1.5944,2.1316,1.2595.0742.0638.3121.2044.4081.0923.003.0352.0211.0513.0591.0826.0161-.0178.0477-.056.0799-.093.0191.0161.0534.0141.0886.0114.0134-.0534.0617-.1094.1104-.1648.0369.0315.0742.0648.1111.0963.0161-.0181.0487-.0554.099-.0772-.0312.0379-.0456.0913-.0436.1255.0188.0161.0379.0322.0752.0648.1426-.2027.3034-.3893.4641-.5745.0352-.003.0856-.0238.155-.0285.1359-.5339.7171-.942,1.2329-1.5383-.0373-.0312-.0742-.0638-.0772-.099.0161-.0181.0322-.0369.0668-.0389-.0181-.0161-.0211-.0503-.0057-.0695.1614-.1863.0799-.3547.1826-.6232-.0047-.0701-.142-.5134-.0933-.5698-.1302-.1121-.154-.1977.0067-.3853-.1483-.1282-.1275-.5658-.1752-.7369.0161-.0181.0487-.0554.0809-.0923-.0933-.0809-.1208-.4624-.0933-.5698-.0752-.0638-.1302-.1124-.1379-.2171.0477-.055-.2816-.503-.0104-.6269-.0591-.0836-.0826-.1691-.1054-.2537.0322-.0383.0799-.0933.1292-.1497-.1503-.1282-.1923-.2302-.0305-.4165-.3356-.2903-.1168-.8809-.1436-1.2625.0799-.093-.093-.0809.0352-.2302-.0933-.0809-.0638-.153.0332-.2644-.1302-.1121.1503-2.5055.1265-2.8528-.1312-.1131-.0617-.1178-.0675-.1873.0161-.0191.0332-.0373.0648-.0742-.2047-.1772-.1379-.7061-.0668-.937-.1111-.098-.0312-.4168-.0007-.489-.1305-.1124-.143-.7745-.3111-.9202.0456-.0903.0913-.1805.1379-.2708-.1685-.1456-.1027-.4473.0265-.5967.003.0362.0208.0513.0389.0675,0,0,.1829.354.199.5624,0,0,.0181.0151.0369.0322-.1131.1302.0725.5165.0839.6916-.1275.1483.0369.2587.0866.4641-.1285.1493.0768.099-.0201.2114l.0383.0322c.0064.1037.1349.6705.094.8306-.0131.053-.0084.1225-.0027.192.2168.351.6363,3.025.5812,3.4656.2977.2577.2205,2.0776.8524,2.6253.0027.0342.0057.0695.0235.0849q-.0473.056.0268.1208c.3054-.353,1.1262,2.7975,2.2058,2.0394.0191.0154.4319.1779.5282.0658.0748.0648.4839.4185.5067.7316.0554.0483.1114.097.2017.1426-.0161.0181-.0312.0369-.0295.0722.2332.5584,3.8099,6.3547,3.7452,6.4288.0792.1339.1581.2691.2732.3993,0,0,.353.3054.2567.4178.0238.0866.0658.1873.1248.2712.2225.193.3641.7057.9541.6628.056.0487.1685.1456.2722.1379,0,0,.892.5111,1.0692.3064.1121.096.5192.1893.9474.0715.0742.0644.3547.0789.5651.099,0,0,.548-.6336.4175-.746.0617-.1094.1077-.1997.0389-.4215.0171-.0188.2701-.6124.2228-.7836.0114-.0876.0228-.1762.0685-.2665.0483-.056.097-.1124.1799-.1701-.143-.2866-.2856-.5728-.4101-.844-.0658-.9017-.7326-3.1401-1.3098-3.6384-.354-.3064-1.2427-2.7018-1.1293-2.832.4983.1379,1.7665,1.7571,2.4001,2.3038.7638.4329,1.5903,1.7353,1.0417,2.5944-.2047,1.0272-.4101,2.0528-.5806,3.078.1067.254-.3319,1.4377-.3859,1.6508,0,0,.0178.0161.0369.0322-.2094.2416-.2665.9084-.2997,1.1729.0191.0161.0383.0322.056.0487-.0587.1436-.1188.2883-.1779.4309-.0188-.0154-.0369-.0315-.0369-.0315-.2577.2977-.2514.6289-.2322.9068-.0161.0178-.0312.0369-.0477.056.0745.0638-.1557.2557-.0074.3842-.2732.3168-.2265,1.2024-.3883,1.389.1675.1446-.1618.4128-.0876.4775-.0732.1977-.1272.4098-.1816.6239.0933.0799-.0664.0389.0258.1198-.4671.5403-.6957,1.4813-.5081,1.9045-.1131.1295-.3091,1.0333-.1789,1.1464-.0648.0742-.2691,1.5897-.2503,1.6068-.0171.0181-.0322.0359-.0322.0359.0322.452-.996,2.8817-1.1407,3.0491.0849.2024-.3863,1.4239-.7057,1.342-.1131.1305-.2255.2608-.3225.3728-.0715-.0302-.1245-.0436-.1628-.0758-.0312.0369-.0638.0742-.0617.1094-.0369-.0326-.055-.0487-.0742-.0648.0322-.0373.0648-.0742.097-.1114-.0534-.0141-.0913-.0466-.1285-.0789-.0161.0191-.0312.0379-.0292.0722-.1305-.1131.095.8306.1883.9115-.044.1255-.0866.251-.1141.3577.0722.0295.1436.0587.2319.0705-.3289,1.245,1.9454.8359,2.5401,1.3517.0352-.003.0866-.0238.1369-.045.0181.0164.0373.0326.056.0487.0161-.0191.0477-.056.0799-.0933.0191.0161.0544.0134.1067.0265-.0077-.1037-.0342.003.0779-.1272.0373.0322.0913.0456.1618.0768.0846-.0597.6031-.3584.7155-.2624.5155-.5957,1.248-2.0444,1.1756-3.0508.644-.7447-.0342-2.4058.5614-3.0944-.2608-.2255-.1151-.393.0675-.7554.0191.0164.0383.0336.0725.0305.0057-.1581.0302-.2997.0711-.4594.1198-.841.3121-2.1954.3826-3.1505.098-.3389.1691-1.1588.2832-1.644-.0188-.0161-.0369-.0312-.0399-.0664.0678-.0399.1342-.0789.2171-.1379-.0181-.0161.3175-1.7001.2245-2.4411.1292-.1493-.098-.6393.1607-.936-.0181-.2141.0017-.5346.0846-.74-.0923-.0802-.0466-1.096-.0446-1.1131.0161-.0191.0322-.0373.0483-.056-.1121-.097.0581-.3101-.0114-.6269.3044-.3483.003-.3785.2171-.6269-.0181-.0164-.0326-.0279-.0419-.0399-.0094-.0124-.0151-.0258-.0161-.043.1369-.2722.0581-.4054.2433-.7326-.1121-.097.2389-.8027.2131-1.1501.0305-.0722.0601-.1436.0896-.2158.0628-.0047.2084.0923.3879.2443l.1628.2057.492.3661.4081.548c.2272.2262.8312.3957.7477.6497.6057.6336.5477.0255,1.2346.9541-.1467.0675.6658.544.5185.6118l.2967.3366.3255.2712.4708.3252.3577.3846c.1208.0037.2842.4822.3624.4403.0789-.0419.3795.0477.4678.35l.4671.3655.0275.1265.1513.1121.0876.0933.1007-.0493c.0678.0503.1057.2064.1722.2567,1.6487,1.2574,3.2763,2.7995,4.862,4.1724-.1121.1302,1.3423,1.4212,1.6773,1.7112-.1285.1483.2587.1903.4262.3349.0312-.0373.0104-.0876.1863-.0658.0772.099.1705.1799.2816.2759-.0722-.0292-.1272-.0768-.1836-.1255-.0799.0923-.1607.1856-.2406.2789.002.0352.0389.0664.0762.099-.0161.0188-.0326.0369-.0477.056.0181.0161.0554.0483.0923.0809-.002-.0352.0114-.0886.0436-.1255.0346-.003.0695-.005.1389-.0107.0373.0336.0933.0809.1648.1114.097-.1121.054.0124.0369.0315-.0161.0188.003.0352.0218.0513-.0722-.0305-.1272-.0782-.1654-.1104-.0322.0369-.0638.0742-.0799.0923.0554.0483.1275.0779.199.1084.0675-.0399.153-.0638.2547-.1057h0Zm-17.7049-19.9738c-.1456.1675-2.5199-2.2783-2.8176-2.536-.0326.0373-.0648.0752-.0809.0933-.354-.3064-.5681-.8494-.94-1.1709-.0322.0369-.0648.0742-.0779.1282-.0362-.0332-.0742-.0648-.1114-.097-.003-.0352.0114-.0886.0436-.1255.0181.0161.0373.0322.0554.0483-.002-.0342-.0047-.0691.0265-.1064-1.7303-1.4984-2.6599-3.7347-4.316-5.1674-.1483-.1285-.3718-.3225-.2759-.4336.0564.0483.1124.096.1836.1255.0144-.0524.0456-.0896.0953-.1456-.056-.0487-.0409-.0664-.0087-.1047.4463.1255-.6782-1.6608-.4366-1.9397-.2225-.193-.0722-.5181-.1094-.5497-.0228-.3131.0534-1.191.004-1.3974.0349-.002.0856-.0228.1369-.044.0466.1705.1282.3396.2111.5081.1675.1446.3691.2863.5718.4299-.0487.0554-.0305.0715.0067.1037-.0164.0181-.0326.0373-.0477.0564.0124.1732.0705.2557.3081.3967.0497.6943,1.7256,1.9159,1.7934,2.8538.2081.4735.5373,2.1249,1.5095,2.0545.0933.0802.2027.143.3111.2047.1067.0265.2141.054.3547.0789.0487-.056.3567-.1473.6507-.4138-.0124-.1732-.1027-.2188.0906-.4423-.1144-.1312-.1571-.0067-.0285-.155-.0077-.1047-.1238-.4977.0503-.5098-.0124-.1732.0171-.2456.249-.1752.4349-.5034,1.7333.3282,1.7924,1.1272.1473.1285.2836.799.4604,1.0836-.0477.055-.0611.1084-.0752.1624.0208.0507.0426.101.098.1497-.0617.1091-.0668,2.2209.1017,2.3656-.0648.0742.1399,1.4564.1581,1.4715-.2732.3168.2074,1.9045.0628,2.0719h0Zm302.816,13.8943c.1047-.0762-.0456-.2852-.0456-.2852.1571-.3987.3396-1.0712.4433-1.1464-.0087-.057-.0238-.0779-.0389-.099.0473-.0664.0893-.096.1312-.1265-.0154-.0208-.0305-.0419-.0456-.0628.0799-.153.1064-.4262.0607-.489.0383-.1228.0772-.2463.1094-.3329.0171-.1084-.0732-.2332-.1037-.2748.0352-.2161.3433-.9789.2685-1.0836.4269-.8172,2.8518-2.5676,3.4102-1.794.1883-.1352,2.2447.1607,2.6169.1467.0151.0208.0305.0416.0446.0628.0419-.0305.0846-.0601.1198-.0544.3188.0886.6366.1758.9541.2644.0611.0836.3302.0171.3302.0171.1208.1665.7792.5497.8658.0104-.0352-.0057-.0715-.0114-.1285-.0017.0057-.0362.0114-.0725.0322-.0876-.0141-.0211-.0302-.0419-.0302-.0419.1463-.1057.0332-.0866.1406-.0695-.0057.0362-.0114.0725-.0228.1436.1732-.156.1638-.2131.097-.2608.0275-.0513.0477-.0664.0685-.0815-.0295-.0419-.0446-.0628-.0597-.0839.0416-.0295.0836-.0597.1044-.0752-.0399-.6705.3208-.6124.0792-.9474-.2873-1.7635.4994-2.1716,1.7122-3.0468.3044-.0611.6098-.1228.8953-.1695.0597.0839.6561.1618.74.1017.1436.0228.096.0896.1799.0285.0513.0268.1027.0534.1681.102.0211-.0154.0419-.0305.0419-.0305.2416.3339,2.5505-.6953,2.7169-.8161-.0144-.0208-.0295-.0419-.0446-.0628-.0211.0151-.0419.0295-.0839.0597-.0151-.0208-.0305-.0409-.0664-.0473.0846-.0601.1463-.1057.2091-.1503-.0302-.0419-.1473-.1161-.0846-.1618-.0752-.1047-.3188-.3101-.4232-.2349-.6185-.8571-2.3364-.2856-2.577-.6195-.5232.3769-2.3555-1.1937-2.2098-1.2994-.0279-.1701-.0638-.1758-.1352-.1883-.0456-.0628-.0762-.1037-.1265-.1312.1628-1.0074,1.1064-1.0209,1.0655-.9903.0715.0114.1436.0228.195.0493.1809.2514.9296.1876,1.1407.4806.1587.0436.3121.1235.4651.2044.7561.1218.8836,1.0474,1.891,1.2101.4235.2349,2.3679,1.343,2.4696,1.9692-.0208.0151-.0409.0302-.0685.0809.1675.4517.3339.9037.4957,1.3917.0389.098.0581.2121.0758.3262-.4175.3017-1.2383.9255-1.9347.6648-.1141.0191-.2282.0373-.3483.0923-.0893-.1255-.4822-.097-.5242-.0664-.195-.0503-.2349-.1483-.3604-.0581-.3957-.0648-1.7608-.4148-2.0746-.1873-.4366-.6071-1.6296.6041-1.2527,1.1262-.0211.0151-.0477.0664-.0745.1168.0154.0211.0305.0419.0399.099-.0208.0154-.0416.0305-.0628.045.1503.2091.0164,1.0376-.2235,1.4971.196.2722-.6819.9047-.5839,1.4383-.0211.0154-.0419.0295-.0685.0809.0302.0419.0607.0839.1054.1467.1467-.1057.0456.0628.1503-.0124.0154.0198.0446.0628.0752.1047.0628-.0456.9172.6098,1.038.7772.3235.052,1.5457.6,1.7169,1.1444.0201-.0144.0352.0067.0507.0275.0198.3349-.0164.9017.2349,1.5145-.143.1987-.1057.4262-.1695.8229-.0208.0141-.0419.0292-.0628.0446-.1285.7923-1.4726.4272-1.933.7591-.2406-.3349-1.4793-.5537-1.3984-1.0578-.1654-.2292-.4061-.3426-.3853-.3577-.3396-.295-.9521-.6155-1.0054-.8638.0426-.0305.0638-.0456.0846-.0607.1074.0178.3749.0789.4957.2463.197-.0789.3947-.1571.5916-.2359.0362.0057.0725.0114.1027.0534.9192-.6641-.1789-1.5249-.4802-1.9427-.6839-.1111-2.577,1.891-3.3294,2.4343-1.1397.5356-2.1397,1.3528-3.5331,1.4051-.4044-.1218-.7943-.2218-1.1853-.3215-.5111-.2675-1.4823-.4245-1.739-.7792h0Zm14.585-19.9671c.2044.1074.3413.5175.6286.5631.1124.1104.2027.2359.293.3614,0,0-.0208.0154-.0265.0513.2561.3557,1.0732-.0114,1.2605-.1473.0151.0208.0305.0419.0399.099.0839-.0601.1826-.1.2597-.1238.0305.0419.0607.0829.0903.1248.102-.1685.3235-.1695.3443-.1846-.0094-.0564-.0037-.0923-.0188-.1134.2691-.0675.5393-.1339.8027-.1654.6128.3205.8437-.196,1.0245-.1675.3967-.2863.7829-.2785.9504-.3993.5108-.3054,1.0225-.6108,1.5477-.8953.8581-.6182,2.4656-2.0014,3.4378-1.8444.057-.0094.1141-.0181.1705-.0275.2567.3547-5.5858,4.2854-4.8318,5.3308-.1044.0752-.2473.2738-.0359.5661-.0211.0151-.0268.0513-.0544.1027.0456.0628.0534.4698-.0799.7259.1503.2081.296.4537.4406.698.3557-.2557.3185-.4832.5067-.6192.0362.0057.0507.0265.0809.0685.0419-.0305.0628-.0456.0839-.0601.0359.0057.0876.0326.1178.0742.6185-.2879.8202-.8464.7383-.3423.0362.0057.7182-.1057.6584-.1893.4594-.3312,1.2927-.4557,1.6266-.6974,0,0,.0151.0208.0302.0419.6833-.1104,1.0494-.4396,1.643-.4537.4604-.3322,1.7132-.3141,2.1944-.4396,0,0,.0154.0208.0305.0419.3339-.2416,1.1282-.2426,1.3558-.2799.0161.0211.0302.0419.0607.0839-.2779.2322-1.193.6383-1.4336,1.0977.1208.1675-.1017.5195.2151.9581-.3225.3916-1.6125,1.2907-2.3317,1.1739-.1467.1054-1.583-.0346-1.7987-.0688-.1057-.1463-.0819-.0685-.2789.0107-.1208-.1675-.1379-.0601-.3121-.1248-.2091.1513-.699-.1312-.795-.2215-.0211.0161-.0419.0305-.0628.0456-.2701-.154-.5319-.252-.8467-.2473-.2866-.3977-.5822-.2789-.8333-.098.3014.4175,1.3924.5202,1.8454,1.147.094.2188,1.5192.6527,1.8548.6329.0154.0208.0305.0416.0456.0628.9068.3319,1.4994.8893,2.1813,1.7008.1665-.1208.2218-.001.3893.1,1.3534.4222,2.8669-.2571,3.5368-1.3118-.0248-.0782-.0497-.155-.0789-.197.1245-.0903.2708-.196.2376-.3312.3967-.2873-.1416-2.0907.0047-2.1964-.1265-.7037,1.0286-.997,1.0286-.997.8437-.99,1.0786-.0473,1.246-.1681.0601.0836.0037.0933.3178.0883.0362.0057.0722.0114.1084.0181,0,0,.153.0799.2158.0342.0305.0419.0752.1047.0279.1715.0359.0057.1436.0228.2795.2111.1047-.0752.5326-.098.5326-.098.0762.1037.4205.1416.5262.2873.0779-.0238.156-.0487.2282-.0373,0,0-.0067.0362-.0124.0725.3769-.2722,1.9142-.2997,1.78.5279.1057.1467.2322.2779.2789.5621.1074.0171.2158.0342.3024.0678.1628.1369.3225.4024.6279.3413.0305.0419.0607.0839.0913.1248.9302-.1628,2.5619-1.3397,3.1847-1.8857-.0524-.2473.0409-.251.1571-.3983.35-.7937.0732-.9115-.2131-1.3091.0268-.0503.0477-.0658.0685-.0809-.0446-.0628-.0752-.1047-.1054-.1463.0265-.0513.053-.103.0742-.1171-.1171-.0742-.2342-.1493-.3369-.2027.0057-.0362.0124-.0711-.0027-.0923-.0762-.1047-.1513-.2091-.2473-.2987,0,0-.3795-.3936-.6947-.3889-.15-.2094-.3071-.3826-.4641-.5557.4527-.5175.941-.6792,1.2756-.9198,1.1386-.5366.9457-1.5095,1.1967-1.6904-.1272-.353-.3195-1.4544-.7161-1.1682-.295-.2322-.5973-.2997-.9219-.352-.1883.1352-.4973-.1178-.8323.1238-.2111-.293-.4299-.199-.7638.0426-.2114-.293-1.645.2322-1.4034.5671-.2091.151-.5896.6802-1.1329,1.0719-.1453.9-2.8679,1.4014-3.6203,1.9454-.0087-.057-.0389-.099-.0695-.1406-.1913.0426-.3826.0856-.5594.1493-.0903-.1255-.2883-.0466-.5309-.0305-.2557-.3547-2.0736.0342-2.4733-.1228-.2691.0668-.5232.155-.7772.2436-.0302-.0419-.0607-.0836-.0752-.1047.0201-.0151.0409-.0302.0409-.0302-.0752-.1047-.0654-.0477-.1379-.0591-.0208.0151-.0416.0295-.0836.0597-.3597-.0581-.3587.1638-.7782.2436-.0295-.0419-.0601-.0836-.0752-.1047.1047-.0752.0534-.1017.0383-.1225-.0352-.0057-.0772.0245-.1191.054.0154.0211.0295.0419.0389.099-.2748.1037-.9084.0198-1.1796.2158-.15-.2091-1.1165.1705-1.5132.1057.1873-.3577.9692-1.0806,1.1128-1.0568.0628-.0456.1255-.0906.1675-.1208.1104-.6839,1.9293-1.4242,2.2011-1.6202.045.0628.7477-.2852.8202-.2728-.0913-.1255-.1124-.1114.0131-.2017.0154.0208.046.0628.0762.1047.0409-.0295.0829-.0601.1399-.0695,0,0,.0151.0208.0305.0416.1903-.2644.7363-.2128,1.049-.4393.2265.3128,2.0863-1.2511,1.5736-1.9615.1426-.199.2255-.4806.2483-.6252.5232-.3765-.7611-1.2309-.7762-1.2517-.5225.3775-1.5393.7296-2.2434.8561-.0302-.0416-.0607-.0836-.0748-.1047-.1352.0346-.3131-.1245-.5853.0725-.5564.0198-7.6406,3.2884-7.7158,3.1837,1.2034-1.5038,2.8065-2.279,4.121-3.1008.5034.0815,1.2403-1.2769,1.4497-1.4279-.2873-.3967.5165-1.486.2302-1.8826.0208-.0151.0419-.0305.0419-.0305-.2789-.5621-.4796-.5755-.6309-.7846-.0349-.0057-.0711-.0114-.1131.0181-.1188-.296-.2225-.2198-.295-.2322-.151-.2094-.2282-.1846-.3004-.196-.0762-.1047-.45-.1836-.4661-.2047,0,0-.3446-.0369-.4044-.1208-.0362-.0057-.0933.003-.1503.0124-.5725-.7943-1.681.5775-1.6209.6611-.1883.1362-.6735,1.3128.1618.7098.0161.0208.0302.0419.0456.0628-.0057.0352-.2074.3718-.1171.4977-.6067.4376-1.1339,1.6447-1.9491,2.2333-.8943.9638-2.7797,2.228-3.474,3.5559-.099.0393-3.2582,2.4458-3.3277,2.8787.0601.0829.1198.1665.1597.2654-.0628.0456.0164.2426.1.1826-.0181.1074-.0893.096-.0141.2007-.1258.0903-.1362.3842-.2198.4443h0Zm-13.3691-.1124c.1084.0181.7135.7249.9407,1.039-.0762.4681,1.4964,1.0178,1.8179,1.1987.1675-.1201.4356.1624.4983.1178.4598-.3319,2.5924-.5041,2.9918-.3473.0154.0211.0305.0419.0456.0628.1554-.0483.3265-.0768.4759-.0893.0151.0208.0245.0779.0342.1342.3235.0524,1.1863-.0295,1.5276-.0849.1809.2514.8886.2171,1.1521.1866.3597.0581,1.038.7772,1.5192.6517.2292.1846.801.1846,1.0427.5192.2091-.151,4.5754,2.4203,5.0627,2.831.0208-.0141.057-.0084.0933-.0027.1265.1312.5745.4433.8628.49.1654.2302.4953.2463.7369.5812.1467-.1057.8849.1245,1.0504.3547.057-.0094.1141-.0191.1493-.0134.0722.0114.1446.0238.2101.0715.0154.0208.0305.0419.0456.0628.1742.0648.3275.1446.4957.2463.0658.0477.1114.1104.1571.1722.0409-.0295.0617-.0446.098-.0389.1359.1883.2369.0201.3879.2292.1047-.0762.0933-.0037.199.1426.1037-.0758.0923-.0037.1644.0087.0752.1037.1503.2084.2416.3339.0419-.0305.2369.0198.2644.1903-.0836.0607.1846.3443.2292.4071.0403.099.0735.2329.1077.3681.3128.3463,1.8263,1.6058,1.7038,2.3619.0359.0057.0513.0268.0664.0477-.0799.1534-.1607.3064-.2255.4806.0601.0836-.0742.1168-.098.2614.1352-.0342.0953-.1332.1866-.0074.2712-.196.1359-.9561.1359-.9561.1255-.0906.101-.1685.2218-.001-.0419.0305-.0685.0809-.1161.1473.196.2712.3806.043.4319.6423.0903.1245.0104.2785.0856.3832-.3557.2557-.6937.4044-1.0074.0581.0218-.0144.043-.0295.043-.0295-.0154-.0218-.0305-.0419-.0456-.0628-.0574.0094-.1144.0181-.1923.0426-.2712-.3765-1.3719-.5353-1.4471-.64.1258-.0913-.7208-.3386-.742-.3235-.1805-.251-1.6219-.7047-1.8377-.74-.1114-.1104-.2436-.2057-.3604-.2799-.5443.392.4202.9363.8883,1.0111.0151.0211.7229.7823.6611.8269.1352.1883.0373.45.1883.6581-.0057.0362.2913.7128.4796.5765.3832.4869.7658.9732,1.1282,1.4746-.0208.0151-.0275.0513-.0534.1027.0503.0265.102.0534.1312.095-.0208.0154-.0255.0517-.053.102.0151.0208.0836-.0601.1446.0238.0141.0208.5601.644.6856.5534.0658.0487.1265.1316.1866.2151.0265-.0503.0477-.0658.0685-.0809.153.0799.3064.1597.4749.2618.1883-.1362.9464-.143,1.0454-.1829.392.5443,1.3585-.9796.9816-1.5028.0477-.0658.0742-.1171.101-.1685-.0295-.0419-.0601-.0829-.0752-.1047.1044-.0752-.0124-.1493-.0124-.1493.0208-.0151.0409-.0305.0617-.0456-.0426-.1913-.1064-.3671-.155-.5232-.0305-.0419-.0456-.0628-.0601-.0839.3312-.9064-.8913-2.5998-1.1688-3.1619.292-.2111-2.3706-3.725-2.5219-3.9344-.3577-.1873-2.2404-1.5628-2.5323-1.3517-.1265-.1302-.4108-.0846-.4564-.1473-.0513-.0268-.1238-.0383-.1799-.0285-.0154-.0211-.0305-.043-.0305-.043-.252-.0399-1.1444-.5725-1.1863-.5423-.1208-.1675-.0695-.1406-.2195-.1275-.452-.6275-2.1528-.9578-2.5307-1.4799-.1675.1208-2.8488-1.7904-3.0582-1.64-.2084-.1997-.4765-.4822-.6222-.3769-.5839-.5014-1.6474-1.0054-2.3437-1.2662-.3769-.5222-1.5383-.7648-1.84-1.1833-.5071-.1742-1.0138-.349-1.5427-.5081-.0631.0456-1.3813-.5926-1.6031-.5916-.1208-.1675-.3634-.1513-.5165-.2312-.7067.0336-1.1366-.738-1.4078-1.1138.1094-.3339.249-.4034.3242-.5205-.1389-.0587-.3728-.2071-.5822-.057-1.7521.2161-2.1431,1.039-2.4112,2.6941-.0628.0446-.0285.9742.2282,1.3299l-.0208.0141h0Zm1.5856,18.6298c.1171.0742.2339.1483.3302.2379,1.6504-.2685,4.0791-1.3528,5.0627-2.4125-.2483-.5202-.098-.3111-.5577.0211-.0302-.0419-.0456-.0631-.0805-.0688.1463-.1054-.0403-.0987.1064-.2044-.2567-.3557-1.7008-.3302-2.1108-.194-.4319-.0695-1.1692.4947-1.4575.448-.4735.5326-1.1423,1.0148-1.2994,1.987,0,0,.0695.1409.0067.1856h0Zm-244.9625-38.5808c-.7688-1.2071-1.5165-2.4266-2.2508-3.625-1.29-2.189-2.2964-4.2865-3.4988-6.3262-.4004-.6792-.7678-1.3507-1.1339-2.0222-.5138-.8715-1.9387-2.4639-1.9766-3.0146-.6024-.3893-1.0541-1.4964-1.4783-1.8759-.2124.1245-.7933,1.3249-.6927,1.4954-.0601.0923-.7621,1.6219-.9245,1.346-.1228-.0134-.2235-.0399-.3255-.0658-.1873-.3195-.2329-.4926-.2654-.645-.0638.0373-.1151.0963-.1665.155-.0685.1265-.1178.0409-.0057.2322-.056.1477-.1624.2104-.151.3759-.6584.3873-.5195-.0087-.9809.5202-.4356-.0581-.351.0352-.543.1487-.0621-.1067-.3426.0007-.4101-.0164-1.0407.6138-3.8156-2.5894-4.3995-3.0458-.4883-.8296-2.8931-4.2781-2.483-4.7489-.1-.1701-.192-1.347.0782-1.2766.1396-.5403.9313-.6057,1.344.0953.2759-.1628.6403.3091,1.3004.2644.0124.0208.0248.0416.0503.0846.0208-.0124.043-.0248.0638-.0373.0248.0419.4594.2446.6242.2332.0997.1701.2863.1456.5926.4232.1272-.0752.3329.1762.5306.3168.0295-.0456.0601-.0923.1027-.1168.0087-.0342.0171-.0678.0383-.0799.0265-.102-.0104-.3094.1168-.3846-.0245-.0426-.0369-.0638-.0493-.0846.1275-.0752-.1799-.353.0752-.503-.0695-.2161.0285-.3893.0161-.4101.044-.1695-.0057-.254-.0597-.394.1131-.4386.3205-.9618.3785-1.3964.0218-.0134.0426-.0258.0648-.0379-.0507-.0849.0047-.0886.1101-.1513.2712-.5604.5423-1.1205.8135-1.681-.1131-.1913-.0114-.1654.1332-.3081-.1074-.2799-.2027-.5386-.2977-.7974.0084-.0342.0171-.0675.0463-.1141-.0121-.0208-.0245-.0419-.0369-.0638-.055.0037-.0886-.0047-.1228-.0134-.1997-.3396-.152-.5973-.3691-.8702-.0131-.0211-.0255-.0419-.0171-.0762-.2775-.1799-.1836-.2634-.1789-.352-.7762-1.3175-1.4487-2.8965-2.1498-4.0858.1399-.5403-.9447-1.3611-1.0967-1.4726-.2161.0705-.4195.1618-.6232.253-.0466-.0302-.0591-.0513-.0711-.0722.0265-.1017.1302-.5071.0685-.6128.0597-.093.1322-.1634.2044-.2359-.0161-.0758.1665-.641.4423-.8037-.1748-.2977.1295-.3624.1104-.6373.2339-.1379.4698-.5631.7886-.7514.0124.0218.0799.0389.098-.0289.0419-.0255.0846-.0503.1399-.054.0121.0218.0245.0426.0369.0638l.0218-.0124c-.0131-.0208-.0255-.0419-.0379-.0638.0084-.0332.0171-.0675.0601-.0923.0856-.0503.1909-.1131.3101-.154.0245.0426.0503.0846.0752.1275,0,0,.0208-.0124.0426-.0248-.0379-.0638-.0628-.1064-.0664-.1618.0208-.0124.0426-.0248.0638-.0369.0121.0208.0245.0426.0711.0722.0087-.0342.0513-.0591.0933-.0836.0258.0416.0732-.0715.1473.056.0859-.0503.1705-.101.2561-.1503.1987-.003.3977-.0057.5963-.0087.0124.0221.8933.3037,1.1256.454.7084.1826,1.5534,2.9763,2.0424,3.8049.0742.1285.7369,1.8847.9692,2.034.0208-.0124.6812-.5443.7477-.5272-.0124-.0208-.0248-.0419-.0248-.0419.5309-.3128,1.6793-1.6199,2.5572-1.3924.0856-.0507.3863-.1705.4366-.0859.4034-.2376.9524-.1312,1.4202-.4071.0591.0513.1389.0906.2312.1493.1275-.0752.448.0799.8913.1047.0886.1493.1685.1876.4728.1228.0752.1275.3044.0779.3806.0617.0876.1493.2225.1836.4081.3034.0208-.0124.0419-.0245.0846-.0493.2369.0607.295.1114.4843.2873.195-.0581.2987.1665.5299.3168-.0211.0124-.0419.0248-.0628.0369-.0087.0342-.0181.0678.0067.1104.1064-.0628.2577.0487.3044.0789.3822-.2252,2.1451,1.4548,1.9186,2.3327,0,0,.0124.0218.0248.043-.1161.2396-.2111.4678-.3054.6953.0124.0208.0248.0416.0369.0638-.1701.0997-.3272.7078-.3014.7504-.1067.0628-.2235.4463-.1618.5527-.0419.0248-.0846.0497-.1265.0752-.097.3712-1.2853,1.4145-1.1091,1.7122-.1705.1-.3369.255-.2742.3618-.403.2376-1.2299,1.5551-.9796,1.9803q-.1067.0628-.056.1477c-.0792.3034-.0819.7353-.2675,1.1014-.2121.1255-.5309.3131-.4433.4614-.2759.1638-.4101.4708-.643.6088-.0732.0715-.1114.1513-.1503.2312-.194.4004-.4346.4282-.4118.7581-.6802.4007,1.3289,3.0814,1.5789,3.9925,1.1148,1.891,2.091,4.1781,3.5008,6.0379.9141,1.5514,1.8407,3.123,2.7881,4.6831-.1131.4393.5259,2.0088.0151,2.3095.0171.0762.0332.1524.0497.2285-.1151.5829-1.3434,1.3638-1.0551,1.8528-.0218.0124-.043.0248-.043.0248-.0873.3376.0725.5584.1782.9826-.255.1503.0322.297-.0114.4651h0Zm-12.5124-16.3283c.0087-.0332.001-.1436.1705-.2436-.0617-.1057.0141-.1228.0322-.1903-.1007-.1691-.0826-.2369-.0654-.3044.0208-.0124.054-.0037.0883.0047-.0027-.1987.0792-.3034.1134-.4386.4574-.0987.2671-.6155.5648-.7913-.0752-.1275.0181-.2111.002-.2873.0856-.0503-.0591-.0513.0903-.1389-.1151-.39-.2081-.45-.1644-.6182-.096-.1151-.1933-.2302-.2675-.3577-.1758-.7839-.5118-1.1588-.837-1.7115-.2111-.5051-.5081-.4735-.6077-.643.0389-.0809.0768-.1607.1493-.2322-.3007-.5098-.5869-1.1423-.8762-1.4867-.043.0248-.489-.6849-.5906-.7108-.297.1752-.2873.4832-.3396.6859-.1067.0628-.4997,1.096-.4121,1.2444q-.0638.0379-.0131.1225c-.043.0258-.0725.0715-.0809.1057.0493.0846-.1114.1513.0131.3634-.2312.3366-.1903,1.0853-.193,1.5172-.0097.0332-.0181.0675-.0268.101-.0131.1225-.0057.2329.002.3423-.0094.0342-.0181.0675-.0265.1017,0,0,.0399.2628.2769.3235.0758-.0161.1644-.0114.2748-.0188.0628.1064.1379.2339.2131.3614.0419.6051,1.8947,2.1471,2.3447,2.9119,0,0,.1275-.0752.1654-.0124h0Zm3.3381-8.6642c.0295-.0466.0601-.0933.1027-.1181-.0628-.1064-.0295-.097.0772-.1597-.0752-.1275.1332-.7943.1685-.9292-.101-.1705.0322-.3339.0208-.4987.0846-.0503-.156-1.1397.0772-1.2776-.0876-.1483.0074-.3755-.043-.4604.0094-.6648.0201-1.3279.0285-1.9917-.2312-.6366-.6564-.8725-.8188-1.1484-.6279.198-2.4867.9779-2.0615,1.7001-.1695.0997,1.2289,2.9119,1.5296,3.4216-.0295.0456-.0379.0799-.0477.1131.2131.3614.2769.8104.7041,1.389.0295-.0456.0597-.0923.1235-.1305.0466.0305.0923.0601.1389.0906h0Zm62.1846-20.1335c-1.2967-.2779-2.0424-.0705-2.5055-1.1111-.2456.0275-.2913-.3893-.294-.4138-.0735-.6614,1.0101-1.4024.5849-2.3233-.2047-1.8377-.547-.9064-1.3319-.8198-.0436.055-.0846.1342-.1007.2101-.5879.0648-.0322-.741.1638-.7628-.044-.392.3403-.9561.3403-.9561.2883-.3044-.0685-1.2823.2997-1.3232.196-.2453.3379-.5336.4111-.7658.1987.003.3977.0057.5994.0332.0436-.054,1.3011-.3433,1.484-.0406.0483-.0057.098-.0114.1722-.0191.0208.196.5279.0648.5554.3101.0238-.003.0487-.0047.0732-.0087.0221.197.4712.2208.4957.2181.3644,1.0511.5833,1.4487.4708,2.9001.1094.9809.3977,2.0159.295,3.3173-.1037.1856-.2074.3708-.3081.5802-.0762-.0161-.1493-.0087-.199-.003-.0218.0279-.0188.0524-.0161.0772-.0524-.0198-.1007-.0141-.1503-.0084-.0208.0275-.0188.0513-.0131.1007-.2208.0248-.2255-.0248-.2067.1467-.0245.0027-.0493.0057-.0742.0084-.0758.2074-.446.447-.5014.6269-.0977.0104-.1711.0191-.2443.0268h0Zm-2.1451,15.3001c.2091-.1228.4081.1027.6916-.251.0923-.0601.1846-.1191.2775-.1789-.0057-.0497.2779-.4034.449-.4225-.0245-.2208.2312-.3738.2235-.447.1228-.0134.098-.4577.2208-.4708-.0524-.4661.2748-1.098.2389-1.4165.1094-.1359-.9695-3.3666-1.0514-3.4314-.4621-1.4867-1.1329-3.0498-1.2719-4.2995-.7779-1.2044-.6373-4.6194-1.5085-5.3167-.0762-.6859-.3712-1.0997-.5833-1.4487-.1446-.6289-.3702-2.6636-1.1548-2.576-.0191-.1715-.3614-.3567.055-.4034.0352-.1275-.0379-.1191.1332-.1389-.0379-.1191-.0762-.2389-.0876-.3379.0497-.0047.098-.0104.1722-.0188.0648-.5279.4577-1.6887.6527-1.933-.0326-.295.1007-.4339.156-.6138.7836-.9796.6477-2.2048,1.6467-3.0364.1369.1094.403-.1685.5752-.1873.0268.0218.0544.0436.0839.0893.0715-.0322.1446-.0409.2188-.0483-.0903-.1389.0104-.1255,0-.2235.0238-.003.0483-.0057.0732-.0087-.0141-.1228.1446-.0409.1332-.1379.1473-.0171.5336-.3329.6869-.5232.0235-.003.1245-.2131.3936-.2426-.0134-.1228.6269-.6155.6081-.7876.8494-1.0615-.1742-2.6844-.5366-3.4884-.1477.0164-.4749-.4678-.55-.4849-.0466.0302-.0685.0581-.0873.1094-.003-.0248-.0057-.0487-.0087-.0735,0,0,.0248-.0027.0493-.0057-.0302-.0463-.0597-.0923-.0903-.1386-.0762-.0164-.1255-.0107-.1742-.0057-.1795-.2779-.4792-.294-.5527-.2856-.0218.0268-.0188.0513-.0141.101.0027.0245.0057.0483.0114.098-.0513-.0191-.1037-.0383-.1524-.0336.002.0248.005.0497.0107.099-.0762-.0171-.1493-.0084-.2228,0-.0057-.0493-.0114-.099-.0141-.1225.0524.0188.1037.0379.1826.0789-.0275-.2456.0379-.1037.0953-.2587-.0279-.0218-.0544-.044-.0574-.0685-.3624.0903-.7135.054-.8655.0218-.1312.1634-.2997-.0161-.2779.1799-.1913.0701-.4557-.0735-.4366.098-.0265-.0221-.054-.044-.057-.0678-.0732.0077-.1467.0164-.193.0456-.0221.0279-.0191.0524-.0134.101-.0544-.043-.0846-.0896-.1141-.1359-.0218.0275-.044.054-.0409.0789-.0275-.0218-.0305-.0456-.0305-.0456-.2644.0779-.4517-.0497-.4195.2443-.1228.0134-.1359.1141-.1141.3111-.1473.0161-.1742.2178-.4195.2446,0,0-.2503.6487.0923.6098.153.2567-.0373.5507-.1161.9561-.1228.0141-.2047.6182-.2074.8168-.1711.0191-.1064.1611-.0846.3567-.0409.0792-1.0047,2.1216-.9799,2.3421-.0493.0057-.096.0352-.1171.0628-.0161.0762-.0302.1772-.0436.2779-.1722.0191-.4329,1.2397-.6373,1.4108.0131.1228-.2779,1.0729-.4302,1.2642,0,0,.003.0238.005.0487-.196.0218-1.0588,2.0776-1.1816,2.0917.0134.1228-.0923.2826-.0601.5775-.1956.0218-.8188,2.0014-.7866,2.2954-.0245.0027-.0493.0057-.0732.0084,0,0,.002.0248.0047.0487-.0597.1312-.095.2587-.1302.3873-.196.0218.057.0675-.1826.1443.1634.1305-.746,2.6629-1.0296,3.0176.0057.0483-.1111.1114-.0866.3319-.1386.0896-.2614.55-.3108.5557.0161.1463-.2124.544-.2997.6534.0057.0487-.1493.2151-.1275.4111-.1722.0188-1.1303,1.6645-1.1168,1.7863-.0953.0362-.1665.0685-.2369.101-.0218.0275-.0436.055-.0628.1064.0057.0493.0114.098.0161.1473.7031.0705,1.0702-.8635,1.5581-1.1662-.0084-.0732.4195-.4681.5631-.5088-.0104-.098.2923-.2809.3789-.3903.153.0336.6124-.291,1.048-.1654-.0456.0295-.0893.0839-.1084.1359-.0466.0295-.0685.0574-.0893.0849.0017.0238.0047.0483.0352.095.0238-.0027.0732-.0084.1225-.0131.002.0245.005.0483.0352.095-.0218.0265-.0436.0544-.0654.0819-.0295-.0466-.0352-.096-.0383-.1198-.0245.0027-.0493.0047-.0732.0074-.0114.1255-.0191.2752-.0275.4252.1446-.0406.2893-.0815.4356-.098.003.0248.0057.0497.0087.0735.0218-.0279.0456-.0295.095-.0352-.0114-.098-.0218-.196-.0305-.2701-.0513-.0191-.0758-.0161-.1007-.0134-.0295-.0466-.0601-.0923-.0648-.1416.0456-.0295.0953-.0352.1436-.0409-.0617-.1171-.098-.2121-.1332-.3074-.0057-.0493-.0074-.0732.0144-.1007.0752.0161.152.0322.2282.0483.0383-.1027.101-.2091.1638-.3158.0483-.0047.098-.0104.1493.0087.0436-.2779-.0866-.1141.1909-.294.0191-.2748.0487-.2292.2285-.3977-.0161-.1473.2893-.5289.4356-.545-.0322-.294.0409-.3027.1524-.4138.7141-.2779.9997-1.0541,1.2259-1.7001-.0742-.6611.4785-1.2689.7051-1.6904.0601-.1312.1198-.2618.2074-.3712.0238-.0027.0483-.0047.1.0144-.0077.1493.0084.296.0245.4433.2178,1.0672.2675,2.4018.4148,3.726-.0597.354.155,3.183.4547,3.6462.2369,2.132.1416,4.4006.4004,6.7295.6621,1.0433.2295,3.6223,1.6887,4.4774.0027.0238.0057.0487.0084.0735.0248-.003.0487-.0057.0735-.0087.0302.0466.0597.0933.1168.1607.1037.0383.2104.101.3406.1607.0218-.0275.0466-.0295.0953-.0352.0275.0221.0789.0409.1312.0601h0Zm17.2693,9.8169l-.0027-.0245c-.0762-.0161-.1534-.0326-.2017-.0275-1.0188-1.5736-.7031-3.867-1.1095-5.509-.2195-.646-.8742-4.2948-.7208-4.7086-.1665-1.4954-.8259-3.63-.5289-4.7556-.0466-.6393-.3406-4.6267-.6403-4.8667-.0466-.193-.1359-.3319.0601-.3537-.2017-.4738-.5806-4.3274-.4473-4.6898-.057-.5148-.2044-2.5075-.2967-2.6713-.0497.0057-.0732.0077-.098.0114-.1742.2171-.3463.4594-.4926.6994-.6621,1.19.1007,2.4703-.0819,3.9542-.1715.0191-.1524.4138-.1742.6651-.1711.0188-.6346.9883-.6289,1.037-.0933.0597-.1198.2614-.3299.3842-.0544-.044-.0849-.0896-.0762-.0161-.196.0218-.3671.0406-.5366.0846-.0027-.0248-.0057-.0497-.0084-.0742-.0762-.0161-.1493-.0077-.199-.003-.0295-.0456-.057-.0675-.0591-.0923.0107.098-.3624.0906-.4061.1446-.0819-.0654-.0084-.0732-.0819-.0654-.0322-.0705-.0379-.1201-.0436-.1685-.49.054-.8903-1.5393-.9094-1.7105-.6269-.5014-.4926-1.7568-.3728-2.2411-.0275-.2456.2017-.4195.1769-.6403.6859-.0762.898-6.2043,1.4622-6.2661.1057-.3842.2121-.7685.3205-1.1282.3054-.3806.2587-1.0205.7467-1.3232.1228-.2369.4712-1.5665.4594-1.6638.0745-.0084.2648-.5259.2648-.5259.2101-.1228.3517-.4111.7192-.452.0903-.0846.2044-.1711.3185-.2587.4356-.545,1.3642-2.2364,1.2853-2.9468-.0735.0084-.1467.0171-.2208.0245-.0379.1037-.0732.0077-.0597.1305-.1715.0188-2.7397,1.9175-2.734,1.9662-.6373.0715-.9883,2.7159-1.7722,2.8035.0131.1215-.3597.1141-.3406.2852-.6621.0732-.5668.2618-1.1796.1067-.6755-.0497-1.487-.6547-1.5333-1.0702-.5175-.6376.1903-1.8581.8037-1.9266.0409-.0789,1.5105-1.1346,1.6826-1.1537.0705-.0332.3732-.2158.4111-.3188.1198-.0379.2396-.0758.3873-.093-.003-.0238.0218-.0268.0456-.0295.1389-.0906.2806-.155.4222-.2208-.0131-.1228,1.2967-.6155,1.5363-.9151.1171-.0628.2342-.1255.351-.1873-.0131-.1238,1.7266-1.4336,1.9444-1.4823-.0057-.0493-.0104-.098.0104-.1255.0933-.0597,1.2719-1.0598,1.4356-.9282.0161-.0762.0352-.1285.054-.1799.0735-.0087.1477-.0161.2208-.0248-.0191-.1711.7849-.5336.7735-.6316.0245-.003.6155-.49.697-.4252-.0027-.0238.2181-.2722.354-.1628.1312-.1634.7135-.2779.9313-.1037.2618-.3272,2.5276-.2567,2.2659.9638-.0648.0815-.3671,1.3803-.6943,1.7894,0,0,.0027.0245.0057.0483-.0248.003-.0487.0057-.0487.0057-.1738.2178-.3215.4577-.4688.6974-.0658.0819-.1389.0903-.1218.2369-.099.0114-1.9014,1.8739-1.891,1.9719-.0238.0027-.0456.0295-.0678.057-.3433.0379-.4222.2208-.6591.3215.0191.1711-1.4517.5584-1.4346.7057-.251-.0218-.6104.0923-.5916.2638-.2282.1738-.8437.4413-.6316.7893.1037.0393.2074.0772.3111.1151-.0658.0819-.0493.452.2339.5453.003.0238.0077.0732.0383.1188.0245-.0027.0483-.0047.1007.0144.0601.5383,1.2501,1.4239.8903,2.4313.0628.5641-.4222,2.0071.9665,1.1081.491-.054,1.3101-.7161,2.0702-.8.0436-.055.1141-.0873.1852-.1198.2456-.0275.6041.3044.9229.2691.0027.0248.0057.0497.0362.0953.0483-.0057,1.3011.3272,1.3289.5715.1711-.0188.3594.1094.5118.3655.8084-.0903,1.6065,2.6256,1.4001,3.219,0,.4463-.643,2.032-1.1195,2.2088-.0218.0268-.0191.0513-.0134.101-.197.0208-.1312.1628-.253.1769-.0846.1332-.1987.2198-.254.3997-.0235.0027-.0483.0057-.0732.0084-.0923.0601-.1856.1198-.253.1769.0077.0735-1.0131.9316-1.0054,1.0047-.1389.0903-.3775.1665-.3567.3624-.098.0114-.101-.0134-.0923.0597-.1141.0876-.5309.3567-.5148.5044-.0245.0027-.0493.0057-.0493.0057-.1628.3158-1.5601,1.5877-1.5296,1.8568-.295.0332-.251.2017-.349.2131-.1742.2178-.6671.2473-.4272.6175.0238.2205-.1581.5886.0819.9588-.0248.0027-.0497.0057-.0497.0057.2074,1.8625.294,4.2103.545,6.4648q-.0245.003-.0218.0275c.1255,1.1276-.1711,2.6988-.0188,4.0717-.1829.3671.1795,1.3944.0332,2.0803.0238-.0027.0732-.0084.1218-.0134-.7403.9259.6104,2.5867.1369,3.9052.0379.3433.3376,1.6987.0322,2.0803,0,0,.0114.099.0772.0171-.0114.1245.0017.2473.0161.3702-.0248.0027-.0493.0047-.0493.0047-.0221.0275-.044.055-.0383.1037-.0248.0027-.0483.0057-.0466.0305-.0352-.0953-.0426-.1695-.0513-.2426.196-.2446-.098.0114-.1577.1416-.0544.4034-.1493,1.1081-.5661,1.3783h0Zm-.4262-23.6988c.0248-.003.0487-.0057.098-.0104-.0161-.1477-.0114-.099.1198-.2628.0248-.0017.0735-.0074.1255.0114-.0057-.0483.5527-1.0537.6262-1.0625.1846-.3423.3728-.6611.5859-.9826.5326-1.4487,1.2678-4.6566.0705-5.6154-.0953.0352-.1913.0705-.2618.1037-.003-.0248-.0057-.0493-.0087-.0742-.3101-.1141-1.4705.3873-1.4561.5098-.3681.0409-.0466.4765-.2426.4987-.003-.0248-.0057-.0497-.0087-.0735-.3671.0399.2997,6.4916.352,6.9577h0Zm-5.3355-3.3522c.0188-.0513.0654-.0819.1121-.1114-.0191-.1722-.0114-.098.1057-.1607-.0268-.2453.3842-.5641.5346-.7792-.0332-.294.9302-.9967,1.0833-1.4105-.1691-1.5202-.1987-3.7995-.7249-4.9563-.0493.0047-.0732.0077-.098.0104-.1711.2426-.501.6259-.5336,1.0027-.1742.2178-.25,2.6578.1114,2.7911.1446.6289-.2691,1.1464-.2064,1.7105-.2456.0265-.5336,1.6722-.3842,1.9035h0Zm-8.6055,12.7677c.1389-.0903.2809-.156.4473-.2235-.0134-.1228,1.2927-.6403,1.5981-.798.8333-.0923.8581-.3188,1.3155-.8913-.0027-.0238-.0057-.0487-.0084-.0732.6108-.7621-.7078-3.0233-1.3205-2.9548-.0027-.0248-.0057-.0483-.0057-.0483-.6725-.2483-.0654-1.9283-.0409-1.9313.003.0248.0295.0466.0601.0923.0524-.2034.2806-1.0484.3537-1.0558.0164-.0772.0326-.1534.0497-.2292,0,0,.0238-.003.0483-.0057-.0295-.0466-.0352-.0953-.0409-.1446.0574-.8249-.446-1.3393-.4869-1.7075-.3302-.0621-.2671-.1685-.2806-.2913-.8088.0903-.3433-.6316-1.2175-.2369-.6215-.2282-.8715.196-1.1276.3493.005.0483-.5118.3044-.4869.5249-.1473.0164-.4148.294-.5259.4064-.0876.1084-.1493.2148-.2131.3215.0218.196-.5413.2587-.5168.4785-.2205.0245-.5067-.0923-.5259-.2638-.7239-.2671-.101.8792.3349,1.2282.0141.1228.2074.0762.3785.057.1151.1359.1856.1037.4165.1769.0336.294.4386.5967.3567,1.4252,0,0-.2473.6715-.503.8245.0238.2208.0705.4138-.044.7239.0279.0221.0792,1.6048.5205,1.5554.0295.0466.1416.3816.4356.3483.057.5155.7688,1.1061.591,1.9689-.1876.5423.4165.1772.4383.3738h0Zm71.9351,11.4288c-.0114-.0544-.0228-.1084-.0399-.1389-.3101-.0809-.6259-.2406-.5879-.3832-.3688-.6336-.2081-2.9881-.1349-3.5559-.0181-.0295-.0419-.0362-.0658-.0419.0399-.3463.0799-.6937.1446-1.0333.0305-.0178.0601-.0349.1074-.0228.0336-.2205.0591-.4175.1094-.6088.392-.2282.7678-1.6588.7849-2.0118-.0477-.0124-.096-.0248-.1198-.0315-.0181.0715-1.2796.5044-1.3366.7192-.0238-.0057-.0477-.0121-.0711-.0188-.0611.0352-.0953-.0248-.1399.1416-.2339.1171-.452.2634-.6688.4111-.0238-.0067-.0477-.0124-.0711-.0191-.0497.0893-.1695.1597-.2265.3738-.2712.1587-.4299.4738-.6658.6916-.0419-.0362-.0658-.0419-.0896-.0487-.097.0762-.1997.1769-.2785.2836-.0114-.0544-.0228-.1084-.0342-.1618-.1503.0876-.9316.8259-1.2417.744-.9329.545-2.1202.7933-3.1941.5108-.4423.0369-2.031-.7125-2.0464-.9467-.0238-.0057-.0466-.0121-.0466-.0121-.2292-.392.0295-1.9558.3873-1.8618.097-.0762.1819-.2064.3017-.1748.0369-.1436,1.4581-.8913,1.7682-.8098.0228.1077-.5698.6148-.6658.59-.0248.095-.1141.0466-.1513.1893-.1909-.0503-.5118.2987-.4668.5145.0473.0124.095.0248.1607.0678-.1379.5249.8826.2319,1.0729.2826.1379-.0399.1161-.1477.3064-.098.0067-.0238.0124-.0477.0124-.0477.0359-.0409.0732-.0829.1275-.0943.0473.0124.095.0248.1359.0621.0067-.0248.0134-.0477.0134-.0477.1198-.0705.0768-.0057.2396-.0389.0436-.1675.2899-.2302.4329-.1923.0312-.1198.6752-.4346.9615-.3597.0564-.2138.1618-.0332.199-.1769.1513-.0876.3557-.1863.4994-.1493.0124-.0477.0419-.0648.0725-.0826.2101-.1228.4212-.2456.6326-.3691,0,0,.8608-.4614.8172-.295.1863-.1295.3738-.2577.5544-.3634.0238.0057.0477.0124.0715.0181-.0057.0238-.0124.0487.0057.0779.0295-.0171.0597-.0349.0893-.052-.1359-.0621-.0581-.0668-.0342-.0611.0057-.0238.0124-.0477.0124-.0477.2712-.1577,1.385-.8074,1.6477-.739.0815-.3101.2661-.2359.4517-.2634.0067-.0238.0134-.0477.0191-.0715.0238.0057.1634-.1359.3537-.0856.2665-.2359.689-.4822.9581-.5383.0124-.0477.0255-.0953.0312-.1191-.0473-.0131-.095-.0255-.1426-.0379-.0342-.1618.1846-.4101.197-.4577-.1524-.7799-.0933-1.1974.0134-1.6038.054-.0104.1017.002.1728.0211.0695-.2628.7098-2.6951-.2366-1.6182-.0191.0711-.044.1665-.045.2681,0,0-.7534.9239-.5145.9866-.0315.1188-.0389.2443-.0534.3936.0238.0067.0477.0134.0715.0191-.0295.0181-.043.0658-.0554.1131.2463.4215-.4611.5926-.3671.2349-.5222-.3413-.1131-1.0242-.098-1.2756-.5802-.994,1.3564-1.8615,1.8988-2.1773.3728-.1571.9027-2.3639.937-2.6864-.0416-.0362-.0893-.0487-.1131-.0554-.3319.1933-.7856.1762-.9182.6765-.2406.1406-1.1947,1.343-1.3078,1.7722-.0409-.0362-.0648-.043-.0886-.0487-.0369.0409-.0493.0893-.0617.1369-.0238-.0067-.0477-.0124-.0715-.0188-.5688.5134-1.3336,1.8672-1.7085,2.7119-.095-.0248-.6279.447-1.0044.4252-.3614.2104-.7114-.0094-.7279-.1406-.0473-.0124-.095-.0258-.1198-.0326-.1178-.1322-.0846-.3527-.2759-.4034-.0285-.0846-.0638-.1443-.0752-.1987-.0409-.0362-.0883-.0487-.1131-.055.0322-.1191-.0876-.1503-.0685-.2218-.2463-.4225-.1181-.6182-.1762-.7856.4587-1.741.2752-4.3398,1.9018-5.2892.1513-.5718,1.343-1.2272,1.444-1.6085.3614-.2114.2806-.4873.8182-.3967-.0067.0235-.0124.0473.0047.0779.0124-.0477.0191-.0722.0493-.0893.0534-.0114.1312-.0164.2094-.0221.0379-.1426.4044-.2759.5708-.2319-.0057.0245.0836.5574-.2027.4822-.0503.1913-.4319.0903-.4319.0903-.0373.0419-1.4296,2.4297-1.2719,2.6998l.0477.0134c.2463.4212,1.543-.4359,1.9444-.5091.0067-.0238.0124-.0477.0191-.0715.1805-.1054.3785-.1805.5772-.2557.0295-.0171.1389-.1416.2094-.0208.7276-.8286,1.4316-.1087,1.543-1.8894.9511-2.9374-.2265-1.0796-.8762-2.1947.0067-.0235.0124-.0473.0124-.0473-.1067-.0792-.2131-.1581-.3265-.2131-.15.0876-.3225-.0342-.2842-.1772-.0658-.0426-.1074-.0799-.155-.092-.0047-.0782-.0161-.1316-.003-.1799-.0416-.0362-.0836-.0725-.1007-.102.0628-.2386.4289-.8561.1426-.9319-.0789-.3779.3671-1.1017.447-1.3101.2809-.0027.5547.1198,1.0121-.0654,0,0-.0064.0235.0107.054.1816-.1054.2775-.1816.4202-.1446.8145-.4745.745-.2121,1.0198-1.6447.3064-.5822,1.2776-1.2699,1.3528-1.5561.2624.0695.3614-.6953.3873-.7906-.1198-.0312-.6128-.2893-.5688-.4557-.4557-.4004-.4806-2.2431-.5299-2.6377.098-.1789,1.1175-.8544,1.1175-.8544.3027-.2765.295-.6363.3198-.7312-.0715-.0191-.1426-.0383-.1913-.0507-.1799.1057-.4051.3779-.5668.4121-.0383.1426-.6994.4279-.8088.5527-.0238-.0067-.0473-.0134-.0711-.0191-.6366.6735-1.2729,1.3481-1.9159,2.0461-.4396.2151-.8782.4309-1.3242.6718-.2712.1577-.3064.097-.4832.3822-.0238-.0067-.0477-.0124-.0477-.0124-.2712.1581-1.187,1.2178-1.4736,1.1427-.2883.1272-1.2564.5098-1.4222.3641.0943-.3567.298-.3547.4681-.6155.0305-.0181.0611-.0352.1084-.0228.0315-.1198.2446.0389.2691-.056.8145-.4745,4.0401-4.4965,4.0878-4.4845.0695-.2614.3947-.5336.4926-.7114.0305-.0181.0611-.0352.1084-.0228.2198-.8343,2.0045-1.9967,1.6867-2.9213.1094-.6098.0154-1.2205.6356-1.0578.0362-.0409.0722-.0829.1027-.1.0305-.0181.0607-.0352.0846-.0295.1503-.0873.3188-.1453.4873-.2024.2873-.0268.5745-.0534.8618-.0792.3339.0876.8836-.3547,1.6571.002-.0067.0238.0114.054.0228.1084.2795.099.5829.2047.8809.3339-.0124.0477-.0248.095-.0144.1493.0248.0067.0477.0124.0896.0487-.0067.0235-.0124.0473-.0191.0711.0477.0134.6403.9591.5775,1.1977.2282.392-1.098,1.2672-.2675,1.7914.0715.0188.1503-.0876.2074.1826.1312-.0171.1685-.0581.3587-.0077.0292.0839-.1151.6326.0513.6765.0883.1503.0638.6286-.0362,1.0101-.0238-.0067-.0477-.0124-.0477-.0124-.1805.1057-.1255.4765-.3967.6356-.0836.0285-.2205-.0332-.2712.1577-.2111.1228-.0779.0047-.2312.296l-.0171-.0305c-.0302.0181-.0369.0419-.0426.0658-.3816-.101-.5661.3101-.7286-.1409-1.5736-.4138.0228,1.0779-.7413,1.9474-.0446.1665-1.0054,1.0101-1.2202.9531-.1094.1245-.198.0762-.2483.2665-.3483.0617-.1027.1007-.2037.4822.0715.0191.5937.8447.5376,1.0598.0701.1198-.0228.8608-.0534,1.3632,1.5031.3947,1.09.899,1.3974,2.6367-.2618.3141-.4356.8799-1.0484,1.0759-.1805.1057-.293.0507-.3309.1933-.3665.1332-.7336.2665-1.1064.4232-.4081.5812-.5507,1.5125-.7829,2.3944.0648.043.1826.1758.2084.0809.3178-.0436.6353-.0886.9702-.1017.2806-.002.5624-.0047.8611.0228.2863.0752.5621-.0057,1.0366.3235-.0312.1188.8239,1.1346,1.096,1.3591-.0695.2628.5745.9162-.1017,1.4528-.1923.5356-.6729,2.1689-1.3054,2.538-.1322.5004-.9655,1.148-1.2715,1.7313-.2389-.0628-.2893.6114-.3846.5869-.0057.0235-.0124.0473-.0007.1017-.0181-.0305-.0409-.0362-.0658-.043-.0362.0419-.0725.0829-.1151.1487-.1903-.0507-.1752.0815-.2312.2957-.0477-.0124-.0772.0047-.1074.0228-.0191.0715-.0383.1426-.0628.2389.0701.1198.2131.1577.3024.2064.044-.1665.351.1178.6973.1587.0191-.0711.4071.0047.5849.1027.6326-.3691.451.8068.4034.7943-.0124.0477-.4869.2037-.6004.6326-.0302.0181-.0664.0591-.0789.1067-.1436-.0373-.8628.5641-.8997.7067-.1913-.0497-.2581.0084-.2893.1285-.0953-.0248-.1131-.0554-.1312.0161-.0305.0171-.0611.0352-.0906.0524-.1675-.044-.4735.054-.4973.0473-.0114-.053.001-.1007.0077-.1255-.0953-.0245-.3054-.0027-.2171.1477-.0473-.0124-.0711-.0191-.095-.0258-.0114-.0534-.0295-.0836-.0228-.1074-.5937.1245-.9437-.0953-1.486.2205-.0248-.0057-.0477-.0121-.0722-.0178-.0181.0711-.4024.1738-.4681.1312q-.0238-.0067-.0295.0181c-.2235,1.1393-.3765,2.3998-.5554,3.7556-.0057.0228-.0181.0711-.0077.1245.0057.0782.0943.1275.0695.2225.0352.0601.1758.3017.1312.4681,0,0,.2806,1.0682.1742,1.4736-.1322.5014-1.3148,1.3118-1.1967,1.93-.0477-.0131-.1017-.0017-.1322.0154-.0675.1607-.1181.352-.1675.543-.1675-.0446-.3007.0735-.3319.1933-.2379-.0628-.451.1618-.4987.1493-.0664.0591-.1151.1483-.1634.2369-.2816.0027-.5453.0352-.8088.0685h0Zm4.7214-13.6765c.0711.0191.3225.0342.4725-.0534.3104.0809,1.1141-1.5182,1.3517-1.4554.0819-.3101.452-.2634.5406-.5973,1.1662-.9427.9474-1.6628,1.0081-2.7693-.1903-.0493-.5118.2997-.5051.2752-.0419-.0362-.0658-.043-.0893-.0487-.0477-.0124-.102-.001-.155.0094.0121-.0473.0483-.0883.0846-.1302.0124-.0477.0255-.095.0312-.1188.0305-.0181.0601-.0352.1087-.0228.0121-.0477.0245-.0953.0302-.1191-.701-.3376-1.4934-.1379-2.0129-.1987,0,0-.0057.0238-.0124.0487-.2034-.003-.4765-.1265-.546.1359-.1208.5544-1.0769,2.93.1399,3.2505.391-.2292-.3977,1.6038-.447,1.794h0Zm7.6692-16.5455c.2071-.7876.1893-.3329.5953-.7104.1188.0312,1.1853-.6319,1.192-.6557.0305-.0178.0836-.0285.1322-.0161.0181-.0722.0419-.0654.0893-.0524.043-.0654.0856-.1312.1285-.196.0477.0124.8675-.4859.899-.6057.0711.0188.4832-.3826.4832-.3826.0238.0067,1.3991-1.442,1.5316-1.4581.1312-.5014,2.1068-2.0978,2.5444-2.5941.0752-.2866.2799-.3863.3111-.5054.843-.4916,1.1692-2.7015,1.8132-2.5313.0752-.2863.2416-.1406.292-.3319.2691-.056.5356-.292,1.0598-.154.2416-.1409.4148-.1208.7725-.0265.0171.0302.0352.0607.0466.1141.0121-.0477.0178-.0715.0245-.0953.2799.099.5843.2047.8819.3339-.0322.1191.1513.295.3188.3386.0342.0601.1748.3017.2946.3332-.0064.0235-.0121.0473-.0188.0711.0171.0305.0587.0668.0997.1027-.0685.2628-.0171,1.9085-.5886,2.2424-.2265.8588-1.0303.5192-1.4632,1.1964-.0779.005-.155.0097-.2332.0144-.0426.0658-.0617.1369-.0805.2084.2024.1047.404.2084.6067.3128.1473.1151.296.2312.4614.3769-.0685.2624.3604.8598.2406,1.3128.4299.1131-1.1531.895-1.1595.9188-.1057.7876-.103,1.5534-.7641,2.3229-.1094.1248-.2188.2483-.3101.4034-.0245-.0067-.0473-.0134-.0473-.0134-.1513.0886-1.3377.7202-1.3568.7916-.0473-.0124-.1007-.002-.1312.0161-.0238-.0067-.0477-.0124-.0711-.0191-.1208.0705-.241.1409-.3681.2349.0245-.095-.2789-.2007-.3265-.2128-.0302.0171-.0426.0644-.055.1131-.0658-.043-.1302-.0856-.2017-.1047-.0114-.0544.001-.1017.0134-.1493-.2389-.0628-.297-.2312-.2587-.3738-.1665-.0436-.2685-.5299-.393-.6393-.0705-.1208-.391-.2557-.3604-.3759-.297-.1282-.6014-.2339-.9047-.3396.0752-.2863,1.1662-.4584,1.1739-1.0682.2883-.6124.3235-.5527.5849-.8655.2863.0752.2359-.2188.5222-.1436.1191-.453,1.1084-1.1111-.1332-.8514-.4745.1557-2.7595,2.5387-2.9022,2.5008-.1456.1654-.253.1883-.4443.1379-.2463.0628-.4916.1255-.7383.1883-.0235-.0067-.054.0114-.0597.0352-.0238-.0067-.0477-.0124-.0477-.0124-.3319.1933-.5651-.2759-.9722.2027-.252.0876-1.3128.2416-1.3564.4081-.1436-.0373-.1789-.098-.2161.0456-.3812-.1007-.8141.0913-1.0605.154-.0067.0238-.0124.0477-.0191.0715-.0238-.0057-.0477-.0124-.0711-.0181h0Zm3.2122,30.0431c.0373-.1426,3.3703.6581,3.5139.6953.0477.0124.6641-.0037.6326.1161.043-.0658.1027-.101.1628-.1362.0487.0124.096.0258.1369.0621.1597-.3151.8447-.5937.8896-.7611.3557-.7735,1.9061-3.2723.642-3.6045.0379-.1436-.1722-.1215-.1275-.2889-.3101-.0819-.1628-.451-.3527-.5004-.0973-.4081-.2-.7927-.2789-1.1702-.545-.9343.1581-2.636,0-3.3911-.0477-.0134-.1017-.002-.156.0094-.0483.0886-.0799.2084-.1114.3272-.095-.0248-.0426.0658-.0426.0658-.1665-.044-.1017-.002-.1923.0513-.0379.1426-.1369.4232-.1654.8239-.0477-.0134-.0715-.0191-.095-.0258-.2074.7876-.702,3.0545-1.5756,3.5636-.0064.0235-.0121.0483-.0188.0722-.2389-.0628-2.6152.0513-2.483-.45-.1503.0886-.2205-.0322-.2644.1342-.0826-.0725-.1665-.1456-.2255-.2121-.1899-.0503-.3812-.1-.5782-.1265.0067-.0238.0124-.0477.0124-.0477-.0238-.0067-.0477-.0124-.0715-.0191-.0188.0715-.4775-.1255-.5128-.1852-.6057-.3131-1.0662-.7916-1.3746-.9742-.0228-.1074-.0456-.2161-.0446-.3178-.0591-.0664-.0943-.1265-.1349-.1628-.0238-.0064-.0477-.0131-.0725-.0188-.0285-.0849-.057-.1685-.0685-.2228-.0419-.0359-.0829-.0732-.1302-.0856-.2285-.391-.297-1.1994-.3681-1.2185-.0849-.3537-.1534-.6772-.2208-1.0017-.0628-1.2148.2037-6.2953.9353-6.9453.1426.0383.0675.3245.1873.3561-.057.2148-.0846.5128.1074.9464.1654.1456.3493.3215.5329.4967.1503-.0876,1.3746.1064,1.8034.2198.0373-.143.35-.2644.6118-.196.5829-.6631.9561-1.3044,1.6182-1.6907.1007-.3812.7504-.7198.1681-1.0262-.0057.0238-.0124.0477-.001.1007-.1225-.2101-.0265-.2873-.3272-.1111-.0181-.0295-.0114-.0544-.0057-.0782-.2604-.1701-.5279-.3175-.7715-.4584-.0235-.0057-.0473-.0124-.0473-.0124.0124-.0477.0188-.0711.0245-.095-.0406-.0362-.0654-.043-.0893-.0487.0312-1.0883,1.3642-1.8853,2.0337-2.3981l.0477.0134c.9333-.9286.6745-2.2716.5775-3.1632-.1409-.2416-1.4071-.3708-1.4642-.1557-.4061-.0057-1.5316.1064-1.6638.6077-.3329.294-.641.5953-.9558.9209-.0067.0238-.0134.0477-.0258.095-.095-.0245-.2957.254-.3863.3064-.0446.1675-.741.8762-1.0427,1.0521-.0235-.0067-.053.0114-.0836.0285-.043.0658-.1027.101-.0866.2322.8829.2329,2.0615-1.7266,2.5998-1.2538-.099.2806-.1987.5601-.2738.8467-.1426-.0383-.0953-.0258-.1856.0275-.2386.9054-1.1178,2.7911-2.1337,2.7787-.0114-.0544-.0295-.0846-.0466-.1141-.2151-.0564-.0829-.5574-.0772-.5812-.0644-.043-.1302-.0856-.196-.1285-.0597-.9333-1.3098-.9313-1.7655-.8467-.0312.1191-.3423.6232.1819.7611.1292.6725-.6497,3.2468-.8571,4.0334.1406.2416-.937,4.1398-.7782,4.8952-.2265.8591.2255,2.0491-.0379,3.0508.1245.1084.5678,1.5256.6088,2.0471.1198.0312.1883.254.2168.3376.1762.3017.3759.6088.5755.9162.2624.0695.0466.1141.4195.4423l-.0134.0477s.0809.2759.1762.3004c.0836.4557.2131.1591.4947.6403.1426.0383.2426.2426.6239.3426-.0064.0245.0114.054.0285.0846.0477.0124.1134.055.1782.098-.0668.543.9729.1799.8856.5138.445.2443.8903.489,1.3601.74l-.0057.0238h0Zm48.6061,7.5111c.101-.0305.3091-.001.6336.1762.2406.0742.4812.1483.7212.2225.0473-.0866.2111-.0258.3842.0685.0819-.1513,1.441-.5356,1.5638-.5537-.0399-.1332.3376-.2091.4044-.2292.2235-.4118,3.182-1.7236,3.8042-1.835.1054-.195,1.0947-.4148,1.2366-.6755,1.1366-.3356,2.3867-1.3974,3.2569-2.0186.1094.0591.3245-.4413.4987-.347.294-.5413,1.4974-.898,1.7682-1.3967.7916-.8883,1.3215-1.8642,2.1528-2.3105.0218.0124.044.0238.0658.0362.0218.0114.0312.0446.0409.0779.153-.2816.447-.1503.6279-.2759.0218.0114.0644.0352.1084.0581.0815-.1513.0799-.096.2101-.0255.1027-.0849.3567-.0876.5081-.005.0591-.1084.2557-.057.4329-.0732.0218.0114.0436.0238.0644.0352.057-.0534.6262-.2215.843-.1037.0114-.0218.0228-.0436.0352-.0658.2205.0077.4641-.3366.8752-.1131.0235-.0426.0685-.0752.1027-.0846,0,0,.4329.2349.4916.1275.0218.0114.044.0228.0648.0352.0238-.044.0581-.0534.0913-.0638.0218.0121.043.0235.0742.0695.0829-.1524,1.7343-.3504,1.9645-.3094,1.4239-.6571,1.2803-1.3249,1.8454-2.3649-.3091-.3081-.3547-.5859-.4983-.5792-.0285-.156-.0564-.3111-.0839-.4661-.0648-.0362-.3406-.0456-.2816-.153-.197-.0513-.152-.0829-.2852-.043-.7497-.6876-1.5497-1.4877-2.2575-1.1138-.0654-.0362-.5487.2349-.6849.3292-.0426-.0228-.0648-.0352-.0866-.0466-.0332.0094-.0779.0409-.1235.0722-.1084-.0581-.1218.0181-.1886.0379-.1738-.094-.5886.102-.6316.0782-.1339.0389-.2681.0789-.4014.1188.0238-.7161,2.034-2.7119,2.5427-3.081,1.3118-.9151.5517-1.2719.8571-1.835-.1493-.1379-.3879-.2675-.2816-.4624-.0218-.0114-.0436-.0238-.0648-.0352.0466-.0866-.4165-.4222-.4594-.446.002-.0554.0037-.1104.0057-.1654-.0436-.0238-.0876-.0466-.1094-.0591-.0866-.0466-.1513-.0819-.2282-.096.0124-.0211.0238-.043.0238-.043-.1295-.0705-.155.0275-.2634-.0315-.0336.0097-.0792.0419-.103.0849-.2302-.0409-.1074-.0591-.2748-.0097-.0591.1087-.2624-.3947-.6279.2769-.3319.044-1.9014.7631-1.7826,1.1645-.0352.0654-.0705.1302-.1064.195.0436.0238.0866.0477.1302.0715-.3765.6923-.4044,1.8283-1.1625,2.7072-.3651.6715-1.1121,1.2205-1.5591,2.0434-.8655.1473-1.7541-.0258-2.4474-.4024.0513-.197.0292-.2094-.1228-.2913-.0446.0315-.0903.0628-.1352.0943-.152-.0819-.155.0275-.2225.0477-.0114.0218-.0238.0436-.0352.0654-.2386-.1292-.2339.0695-.352.2856-.0883.0084-.4547.0617-.4896.1275-.7232-.1685-.3618.252-.7963.3802-.0077.2208-.1312.294.0369.8621-.2007.3688.0211.994-.1084,1.2326.0849.102.1171.1477.101.2799.6088.2738,1.2269.5819,1.8454.8893-.0114.0218-.0134.0772-.0151.1322-.5175.2806-1.0162.9923-1.4994,1.5716-.0332.0094-2.1535,2.0014-2.283,2.2394-.0648-.0352-.9162.6534-1.0568.9131-.5433.3785-1.0635.7695-1.585,1.1595-.2816-.153-.5631.6765-.9396.6963-.0648-.0352-1.235.6212-1.5155.7762-.0124.0221-.0238.044-.0477.0876-.1302-.0711-.2101.0258-.3111.0554-.0114.0218-.0235.0426-.0463.0866-.044-.0238-.099-.0258-.1326-.0154,0,0-.0114.0211-.0235.043-.3111.056-.6024-.1305-.689-.1779-.0416-.3873-.1769-.6564-.2376-.8021.1675-.0493.0758-.296.0057-.1654-.3037-.1654-.2322.0141-.4661.0826-.0943.1742-.8534.4349-1.1444.8668-.0762-.0144-.1658-.0057-.2322.0141-.0218-.0124-.043-.0238-.0648-.0352-.1121.0507-.2359.1238-.3594.197-.2826-.153-.1399.2057-.5158.2255-.0218-.0124-.0436-.0238-.0644-.0352-.1819.1265-.5786.1352-.4406.602-.0705.1305.0124.2883-.0617.5282.0312.0456.3178.3977.2826.4621,0,0,.3557.2218.2852.352Z" style="fill: #006f7d; fill-rule: evenodd; stroke-width: 0px;"/>
      <path d="m62.4169,292.942l-8.631.1577-.0238-1.4343c5.1741-2.0967,7.6339-4.9076,7.3943-8.4323-.1658-4.2881-3.8072-6.3705-10.9244-6.2412-7.2191.0399-10.7827,2.5837-10.6982,7.638.0809,4.8637,2.8652,7.438,8.3474,7.7165l.0285,1.7152c-6.303-.0752-9.5572-3.4958-9.7582-10.2623.1285-8.3961,4.122-12.9077,11.968-13.5272,7.498.6269,11.7244,4.8412,12.6738,12.6453.0352,2.0994-.6088,4.4975-1.931,7.1896l1.5306,1.4004.0238,1.4346h0Zm3.2512,25.3503l-8.5336,1.3833-.1836-1.5632c4.3814-1.9024,6.3564-5.0398,5.9359-9.4078-.1685-2.186-1.0101-3.0871-2.5256-2.7018l-6.7987.8725c.095,3.1599,1.6753,4.8771,4.7459,5.1529l.1675,1.4239-9.6535,1.2376-.1675-1.4229c2.8233-1.0333,3.9593-3.0975,3.4112-6.2006l-8.0232,1.0296c-1.6521.0208-2.2602,1.1071-1.8243,3.2599.6383,4.6277,3.4891,7.3369,8.5461,8.1286l.1836,1.5628-9.1417.8829-2.7035-23.0038,1.3564-.1738c.1094,2.4817,1.0209,3.571,2.732,3.2532l16.5847-2.127c1.6427-.1124,2.2743-1.3984,1.8977-3.8468l1.3574-.1742,2.6367,22.4347h0Zm-.8333,2.131c.7648,2.4505.3443,3.865-1.2605,4.2435l-16.0622,4.8106c-1.6427.5937-2.7052-.3329-3.1857-2.7662l-1.3145.3926,2.6055,9.4881,1.3135-.3936c-1.0034-2.9689-.6343-4.572,1.1095-4.7965l14.3544-4.2985.0393.1416-14.2101,18.8409.9044,3.2982,19.2254-5.758c1.4447-.6289,2.6112.1644,3.5035,2.3733l1.3145-.394-2.4162-8.8011-1.3145.394c.4651,2.7367-.0715,4.2378-1.6155,4.5032l-11.8489,3.5482-.0369-.1339,12.5509-16.5609-2.3411-8.5253-1.3148.394h0Zm8.9259,25.7915l8.4662,21.885-7.8212,3.4589-.6148-1.5903c3.8203-2.8501,5.0828-5.957,3.7854-9.3132l-17.4009,7.342c-1.7122.4138-1.9538,1.9568-.7259,4.6261l-1.2678.5346-5.1321-13.2664,1.2678-.5346c.8943,2.8159,2.1092,3.7908,3.6512,2.9357l17.4005-7.342c-1.3336-3.4465-4.3083-4.766-8.9172-3.9536l-.6145-1.5893,7.9232-3.1928h0Zm3.6727,51.8197c-1.6712.7829-2.631.8675-2.8689.2436-.7507-.2104.0171-1.4974,2.2927-3.8633,2.2317-2.4458,2.7062-5.213,1.4266-8.2971l.1161-.0695c2.7884,5.0429,5.8627,6.6,9.2293,4.6831,3.5931-2.279,3.966-6.0852,1.1246-11.42l-6.1624-11.1489-1.1853.7145c1.2621,2.1004,1.1595,3.5368-.3074,4.316l-14.4698,8.7249c-1.4601.9866-2.7025.3608-3.7327-1.8796l-1.1843.7145,6.2339,11.2754,1.1833-.7145c-1.4363-2.2213-1.1759-3.7519.7839-4.6022l6.2859-3.7908c.7114,1.6648.8581,2.8948.4527,3.6881-.2426.6963-1.388,1.7742-3.4331,3.2267-3.4018,2.0511-4.1942,4.6214-2.3763,7.7128,1.6887,3.0555,4.1123,3.6311,7.2752,1.7239l-.6839-1.2376h0Zm6.4735-19.7617c1.1433-.8021,2.1243-.4557,2.9451,1.0292,1.0292,2.2414.2826,4.2351-2.2384,5.9741-2.832,1.933-5.2425.9054-7.2306-3.07l6.5238-3.9334h0Zm-3.0565,34.2581l-5.6372-8.1038,1.1054-.839c1.2786,1.5048,3.3522,1.8169,6.2366.9266l19.659-4.8375,1.0484,1.5068-11.5284,20.4191c-.9893,1.3393-.9762,2.7407.0436,4.2076l-1.1064.839-7.4054-10.6465,1.1051-.84.8041,1.1558c.7886,1.288,1.5209,1.6152,2.2068.9806.1513-.1141.352-.3873.6145-.8198.1513-.1141.2597-.197.3359-.255l2.1622-3.9421-4.5073-6.4788-2.8575.7504c-.5822-.0265-1.2833.2644-2.0964.8819-.8896.6735-.9286,1.5944-.1248,2.7491l1.0484,1.5068-1.1064.839h0Zm10.719-2.1202l4.1267-7.2051-7.75,1.9957,3.6233,5.2093h0Zm14.3386,33.2527l7.104-6.3023-1.0054-1.1652c-4.5851,2.381-8.1021,2.2877-10.5639-.2759-1.2927-1.2158-1.2699-2.3296.0722-3.3371l12.3171-11.5828c1.0997-1.289,2.4401-.9474,4.025,1.0272l1.0168-.9551-8.5263-9.8894-1.0158.9561c1.6521,1.78,1.8417,3.2126.5584,4.2875l-12.4171,11.6778c-1.2282,1.2853-2.5723.94-4.0247-1.0282l-1.0172.9561,13.4768,15.6313h0Zm42.0974,4.1885l-5.5496,6.906-1.0511-.9219c1.8776-5.4536,1.4618-9.2367-1.2423-11.36-3.2079-2.6827-7.1014-1.1786-11.6781,4.5157-4.7059,5.7161-5.207,10.1948-1.4991,13.4433,3.5683,3.127,7.2554,2.6209,11.0529-1.5162l1.2574,1.1014c-4.1885,4.919-8.7954,5.2405-13.8171.9598-5.9825-5.6103-6.6228-11.7167-1.9236-18.3069,5.3727-5.5003,11.1908-6.0664,17.4532-1.6954,1.539,1.3501,2.8508,3.4314,3.9277,6.2406l2.0165-.2883,1.0531.9219h0Zm3.6767,15.2581l3.7015-6.1852c.7171-1.5551,1.9813-1.6873,3.7935-.3967l.7249-1.2108-10.3394-6.7473-.7249,1.2108c1.9796,1.1833,2.5001,2.48,1.5497,3.8831l-8.8545,14.8001c-.841,1.5893-2.184,1.6692-4.022.2473l-.7239,1.2108,10.3394,6.7483.7239-1.2108c-1.9548-1.0531-2.3954-2.2984-1.3212-3.7347l4.3539-7.2792,6.6228,4.3217-4.3549,7.2782c-.841,1.5893-2.1051,1.7216-3.7938.3967l-.7249,1.2108,10.4582,6.8255.7249-1.2111c-2.1877-1.2051-2.7424-2.5236-1.6685-3.9609l8.8545-14.8001c.7165-1.5541,2.0957-1.6122,4.1401-.1701l.7249-1.2108-10.4582-6.8255-.7249,1.2118c1.831,1.0866,2.2716,2.3317,1.3222,3.7347l-3.7015,6.1862-6.6218-4.3227h0Zm22.4585,28.8169l-11.3465-6.0386.6202-1.2729c2.032,1.2937,3.4008,1.1111,4.1056-.549l7.5863-15.5494c.8279-1.484.1658-2.7481-1.989-3.7908l.6212-1.2725,11.3479,6.0386-.6205,1.2729c-2.1582-1.2521-3.527-1.0685-4.1113.546l-7.5853,15.5484c-.9504,1.5296-.2873,2.7938,1.9927,3.7945l-.6212,1.2729h0Zm11.2573-20.4705c2.3337.8383,3.1632,2.0397,2.4867,3.6066l-5.9882,16.2924c-.5346,1.7273-1.8826,2.0565-4.0324.992l-.49,1.3326,8.8222,3.5378.4906-1.3336c-2.8756-.9504-3.8791-2.2219-3.0001-3.8116l5.3509-14.5601.1312.0524,5.856,23.1918,3.0669,1.2303,7.1668-19.5013c.3883-1.5836,1.6971-2.0783,3.923-1.4934l.49-1.3336-8.1836-3.281-.49,1.3326c2.3733,1.2595,3.1971,2.6105,2.4713,4.0583l-4.4177,12.0184-.1255-.0503-5.1103-20.4342-7.9279-3.1783-.49,1.3326h0Zm27.8208,34.6178l-9.2186-2.7615.3765-1.3726c1.8941.3641,3.7129-.7232,5.4603-3.28l12.6406-16.4515,1.7132.5128,2.9528,23.5032c.0094,1.6924.8457,2.7871,2.5142,3.2867l-.3759,1.3726-12.1134-3.6274.3765-1.3726,1.3148.394c1.3803.5077,2.1508.2946,2.3172-.646.0524-.1883.0497-.5319.001-1.0417.0513-.1873.0886-.3225.1141-.4168l-.6192-4.4965-7.3715-2.2078-1.8102,2.4293c-.4738.354-.8554,1.0333-1.1319,2.0424-.3027,1.1027.2081,1.8531,1.5229,2.2471l1.7132.5138-.3769,1.3726h0Zm7.1973-8.5642l-.9957-8.3303-4.9315,6.556,5.9271,1.7742h0Zm21.044-8.6518l.1201-1.4222,8.4595.7725,10.3052,18.172.1342.0124,1.0739-12.8251c.3158-1.6001-.8333-2.6615-3.4465-3.1887l.1188-1.4222,8.7337.7984-.1198,1.4219c-2.2934.0782-3.4216.9316-3.376,2.5656l-1.7437,20.8084-3.2713-.299-11.7502-20.6071-.1399-.0134-1.3011,15.536c-.4255,1.782.8749,2.7149,3.8895,2.8015l-.1198,1.4222-9.4136-.8598.1188-1.4232c2.3478.4044,3.5569-.2997,3.6149-2.1145l1.4561-17.3848c.2359-1.7008-.8779-2.6169-3.3428-2.7508h0Zm27.0839,13.5393c.4688-7.8403,4.4358-12.3285,11.8899-13.4547,7.3306.5879,11.5341,4.7771,12.6194,12.5614-.5621,7.8501-4.4804,12.2382-11.7586,13.1694-7.5044-.392-11.7586-4.4824-12.7506-12.2761h0Zm6.5711-.2396c.1675,7.6292,2.2098,11.3294,6.1318,11.0878,3.7405-.0379,5.4899-3.8774,5.2352-11.5016-.2524-7.5286-2.2528-11.224-5.9902-11.0871-3.926.1426-5.7154,3.9764-5.3768,11.5009h0Zm43.7549,3.3438l1.3574-.1732c.445,3.7868-1.0084,5.8912-4.3626,6.3211-3.4341.5393-5.3909-1.2272-5.8694-5.2986-.4802-2.5344-.9826-4.0552-1.5011-4.5613-.542-.6994-1.6826-1.039-3.4284-1.0054l.8846,7.5245c-.0161,2.2162,1.2319,3.0649,3.7509,2.5511l.1665,1.4175-12.3731,1.5867-.1665-1.4175c2.3773-.1141,3.4133-1.0655,3.1146-2.8528l-2.0357-17.3217c-.1134-1.7132-1.3397-2.3743-3.6834-1.9813l-.1675-1.4185,12.2342-1.5685c5.8124-.647,9.0209,1.1984,9.626,5.5429.3738,3.9858-2.1994,6.3335-7.7336,7.0433l.0161.1389c3.2179-.0248,5.4717,1.5125,6.755,4.6137,1.1957,3.1126,2.0306,4.3519,2.5092,3.7126.6433.0164.9427-.9386.9068-2.8535h0Zm-14.8883-13.944l.9178,7.8091c4.2797-.3587,6.1271-2.2746,5.5308-5.7523-.548-3.1032-2.0139-4.6006-4.3912-4.4861-1.6296.2091-2.3182,1.0168-2.0575,2.4293h0Zm28.5867,16.6854l-.3769-1.3726c-2.2867.6849-3.7307-.0772-4.3341-2.2776l-4.6449-16.9163,12.1201,19.7389,2.8928-.8668.5272-23.5257,4.9083,17.8781c.5692,1.7162-.2282,2.7998-2.3847,3.2488l.3765,1.3726,11.7197-3.5092-.3765-1.3736c-2.3213.8923-3.6311.4393-3.9354-1.3558l-4.6059-16.7747c-.6272-1.5971.2537-2.7055,2.6491-3.3273l-.3769-1.3729-9.877,2.9575-.248,17.7851-.1295.0389-9.235-14.9444-9.7418,2.9173.3775,1.3729c2.0823-.7192,3.2763-.3339,3.5948,1.1578l4.4177,16.0897c.5138,2.227-.2785,3.6586-2.3847,4.2891l.3765,1.3729,8.691-2.6028h0Zm32.557-10.717l-8.9541,3.5891-.49-1.3336c1.7229-.899,2.5484-2.9109,2.4713-6.051l.6148-21.0839,1.6645-.6671,15.9015,16.9136c.9819,1.346,2.2813,1.6954,3.9012,1.0447l.491,1.3336-11.7633,4.7163-.491-1.3336,1.2766-.5118c1.3954-.4614,1.8873-1.1158,1.4793-1.9719-.0675-.1826-.2675-.4557-.6004-.8323-.0664-.1819-.1151-.3131-.1483-.4044l-3.0867-3.2022-7.1584,2.8699-.0456,3.0783c-.1752.5806-.0876,1.3625.2718,2.3421.395,1.0722,1.235,1.3491,2.5115.8373l1.6648-.6668.4896,1.3336h0Zm.8135-11.363l-5.5963-6.0271-.1607,8.335,5.757-2.3078h0Zm34.3249-6.2127l-4.2807-8.6461-1.3148.7611c1.19,5.2006.3131,8.7592-2.633,10.6874-1.4249,1.0417-2.4602.7685-3.0965-.8239l-8.0363-15.1403c-.9551-1.4088-.3349-2.6961,1.8645-3.865l-.6631-1.248-11.1432,6.4503.6631,1.2491c2.0327-1.2813,3.4112-1.1511,4.1257.3967l8.1011,15.2632c.9235,1.5383.2987,2.8283-1.8645,3.8639l.6628,1.2491,17.615-10.1975h0Zm-4.2163-25.8516l9.8438-7.7474.8239,1.1397c-2.0927,1.5326-2.5733,2.927-1.4393,4.1828l8.6558,11.9976c1.833,2.378,4.1056,2.6766,6.8242.897,3.1364-2.4696,3.5274-5.4063,1.1853-8.8135l-7.6672-10.6277c-.7913-1.4108-2.3619-1.3668-4.7126.1238l-.8229-1.1407,7.1091-5.5946.8235,1.1397c-1.6739,1.7991-2.0021,3.2505-.9739,4.3512l7.5027,10.3982c3.0773,4.2656,2.1689,8.3209-2.7189,12.167-4.7895,3.6556-8.5451,3.6841-11.2583.0862l-8.3246-11.5388c-.9141-1.4286-2.2555-1.3897-4.0277.1198l-.8229-1.1403h0Zm21.2219-14.6933c1.7437-1.8236,3.1411-2.0749,4.1935-.7544l11.3962,12.763c1.2517,1.2595.9437,2.6693-.9141,4.221l.9323,1.0443,6.9118-6.7312-.9323-1.0443c-2.0786,2.282-3.6129,2.6662-4.5965,1.1454l-10.1834-11.4069.1027-.0997,22.5253,4.6697,2.4018-2.339-13.6393-15.2766c-1.1927-1.0588-1.0454-2.5048.4339-4.3378l-.9323-1.0443-6.4117,6.2439.9323,1.0447c2.1243-1.6763,3.6482-1.8578,4.5757-.5413l8.4065,9.4146-.098.096-19.8265-4.1606-6.2107,6.049.9329,1.0447h0Zm44.9657-13.4862l-8.5212,9.8847-1.0172-.9551c1.7229-1.7152,1.9085-3.1431.5557-4.2848l-12.4181-11.6768c-1.1574-1.2205-2.4978-.8789-4.021,1.0245l-1.0158-.9561,8.5216-9.8844,1.0168.9558c-1.7162,1.8531-1.9008,3.281-.5594,4.2875l12.4181,11.6778c1.1682,1.3538,2.5085,1.0121,4.0247-1.0282l1.0158.9551h0Zm-16.3189-16.2944c.7628-1.4192,2.0206-1.7625,3.7643-1.0282l20.2678,6.8899,1.6893-2.4293-12.0831-18.8942c-.8188-1.0967-.8292-2.4629-.0312-4.0982l-1.1064-.839-4.6717,6.7161,1.1054.839c1.1272-1.6202,2.2108-2.0347,3.2418-1.2527-.4155-1.0235,1.9967,2.5713,7.2309,10.7911.5953.9198,1.0252,1.6001,1.2917,2.0367l-.0819.1178c-10.1139-3.3133-14.9531-5.0378-14.5145-5.1805-.8524-.4054-.6031-1.5736.7403-3.5045l-1.1064-.84-6.8426,9.8371,1.1064.839h0Zm23.0854-39.4452l7.6131,4.2596-.7544,1.3632c-4.5945-1.2346-7.9793.0305-10.1616,3.7824-1.1252,1.8521-.9712,3.1012.4604,3.7452l5.9322,3.5777c1.7447-2.5847,1.4726-4.9476-.8208-7.0993l.6866-1.2423,8.4226,5.0788-.6856,1.2423c-2.8501-.95-4.9469-.0151-6.2976,2.8072l7.0003,4.222c1.3319,1.0215,2.4441.5353,3.3364-1.4575,2.1572-4.0972,1.442-8.0524-2.1414-11.8633l.7534-1.3632,7.8098,5.0398-11.0955,20.0718-1.1843-.7145c1.343-2.0508,1.2423-3.4931-.3074-4.315l-14.4705-8.7249c-1.3766-.9427-2.6219-.3131-3.7321,1.8796l-1.1843-.7145,10.8207-19.5751h0Zm26.9047-15.8662c1.6212.894,2.2746,1.6313,1.9494,2.2108.3044.7477-1.1386.9084-4.3254.4926-3.2193-.3312-5.5983.9816-7.1386,3.9334l-.1245-.0534c2.089-5.3983,1.3719-8.8877-2.1488-10.478-3.9307-1.5534-7.0319.4822-9.3082,6.1053l-4.6167,11.9355,1.2672.5356c.8074-2.3327,1.9558-3.1317,3.4455-2.4038l15.4924,6.5369c1.6427.5937,1.9367,2.0024.8799,4.2284l1.2678.5356,4.67-12.0724-1.2682-.5346c-.7913,2.5501-2.1072,3.278-3.9542,2.1897l-6.7305-2.8404c.8182-1.6105,1.6555-2.4877,2.5038-2.6438.6745-.2282,2.1927.0503,4.5482.84,3.6415,1.5363,6.0691.6051,7.2829-2.7928,1.2652-3.2716.2074-5.6201-3.18-7.049l-.5121,1.3242h0Zm-18.8959,6.8386c-1.3088-.447-1.6514-1.4669-1.036-3.0572,1.0568-2.227,3.0213-2.8397,5.8845-1.836,3.2032,1.1413,3.9116,3.7576,2.1367,7.8403l-6.9852-2.9471h0Zm26.0906-10.52l-8.9551-2.6827.4145-1.5135c5.5573.1779,8.8518-1.6105,9.8837-5.3717.8057-2.9337-.054-4.8298-2.575-5.6791-1.4051-.4205-3.2924,1.0967-5.6637,4.5519-3.1042,4.7278-6.1027,6.657-9.0011,5.7885-4.6915-1.6021-6.4809-5.116-5.3697-10.5364.4547-1.6551,1.3326-3.126,2.6377-4.4244.4138-.4661.6564-.8437.7326-1.1195.1903-.3369-.1228-.9255-.938-1.7675l.3775-1.3726,8.0336,2.4065-.3769,1.3729c-4.7707.057-7.6816,1.6685-8.7363,4.8257-.5557,2.7102.1624,4.411,2.1602,5.111,1.5783.4728,3.4418-.9568,5.5899-4.2824,3.177-4.9979,6.3933-7.0128,9.6411-6.0406,4.4603,1.736,6.1412,5.3117,5.0301,10.7331-.5544,2.0175-1.3991,3.8992-2.5454,5.6382-.5252.5413-.8125.9-.8618,1.0816-.1258.4574.1732,1.094.8987,1.9071l-.3765,1.3739h0Zm8.5195-36.6115l-1.346-.2483c-.2503,2.5703-1.2138,3.6015-2.8918,3.1002l-16.4552-3.0307c-1.6494-.1114-2.2176-1.4242-1.7018-3.9448l-1.347-.2483-2.2119,13.099,1.347.2473c.3255-2.4562,1.289-3.4874,2.8911-3.0938l16.4548,3.03c1.7256.2188,2.2927,1.5323,1.7028,3.9401l1.347.2483,2.2108-13.099h0Zm-22.7048-5.8201l1.5763-23.5458,8.4813.4718-.1151,1.7115c-4.6298.8114-7.0688,3.026-7.3104,6.6369l18.7211,1.3679c1.7132.4121,2.578-.8645,2.5941-3.825l1.3642.1-.9551,14.2729-1.3652-.1c.3785-2.9394-.3044-4.373-2.0491-4.311l-18.7207-1.3672c-.2483,3.7089,1.8719,6.2557,6.3553,7.6359l-.1141,1.7112-8.4625-.7591h0Zm3.4958-23.8045l-1.3668.0503-.4074-12.1513,1.3672-.0507c.0675,2.0018.4671,2.9394,1.1937,2.8216.2748-.0104.7725-.1752,1.4927-.489.1779-.097.3091-.1997.3993-.3007l6.8503-4.1103-6.6856-3.1955c-.8296-.348-1.4793-.5195-1.934-.503-.9084.1312-1.3756,1.1984-1.4021,3.2028l-1.3672.0493-.3111-9.2968,1.3672-.0493c.351,2.2773,1.2195,3.5834,2.5988,3.9183l10.4448,4.9143,6.2976-.2302c1.7437.2235,2.476-1.1407,2.1964-4.0868l1.3658-.0503.4692,14.0131-1.3668.0493c.0815-2.9649-.7403-4.315-2.4696-4.063l-6.4305.2352-8.6034,5.0348c-2.6988,1.3387-3.9317,2.7693-3.6985,4.2875Z" style="fill: #006f7d; fill-rule: evenodd; stroke-width: 0px;"/>
    </g>
  </g>
</svg>